<?xml version="1.0" standalone="no"?>
<!DOCTYPE svg PUBLIC "-//W3C//DTD SVG 20010904//EN"
 "http://www.w3.org/TR/2001/REC-SVG-20010904/DTD/svg10.dtd">
<svg version="1.0" xmlns="http://www.w3.org/2000/svg"
 width="1257.000000pt" height="1280.000000pt" viewBox="0 0 1257.000000 1280.000000"
 preserveAspectRatio="xMidYMid meet">
<g transform="translate(0.000000,1280.000000) scale(0.100000,-0.100000)"
fill="#000000" stroke="none">
<path d="M5938 12763 c7 -3 16 -2 19 1 4 3 -2 6 -13 5 -11 0 -14 -3 -6 -6z"/>
<path d="M6003 12763 c9 -2 25 -2 35 0 9 3 1 5 -18 5 -19 0 -27 -2 -17 -5z"/>
<path d="M6593 12763 c20 -2 54 -2 75 0 20 2 3 4 -38 4 -41 0 -58 -2 -37 -4z"/>
<path d="M5824 12745 c11 -8 18 -17 15 -19 -2 -2 -49 -7 -103 -11 -89 -7 -99
-6 -93 9 5 12 0 16 -18 16 -26 0 -34 -15 -12 -23 23 -8 1 -16 -67 -23 -62 -6
-69 -5 -63 9 5 12 1 17 -13 17 -11 0 -20 -4 -20 -10 0 -5 5 -10 10 -10 6 0 10
-4 10 -9 0 -5 -26 -12 -57 -15 -60 -7 -68 -9 -293 -52 -208 -41 -194 -39 -187
-20 7 18 -10 20 -53 6 -24 -8 -23 -8 8 -9 60 -2 32 -17 -80 -45 -115 -28 -302
-80 -348 -96 -14 -5 -70 -23 -125 -40 -55 -17 -159 -54 -231 -81 -72 -27 -134
-49 -137 -49 -4 0 -36 -13 -72 -30 -36 -16 -68 -30 -70 -30 -9 0 -97 -41 -270
-126 -199 -98 -285 -145 -456 -249 -100 -61 -133 -71 -79 -24 l35 31 -40 -23
c-22 -13 -96 -61 -165 -108 -699 -472 -1307 -1089 -1795 -1818 -60 -90 -106
-166 -102 -169 3 -3 18 14 33 38 112 178 214 322 214 302 0 -5 -49 -83 -108
-174 -157 -239 -171 -261 -254 -410 -125 -224 -228 -433 -312 -635 -21 -49
-44 -103 -51 -120 -49 -112 -176 -493 -205 -615 -5 -19 -20 -80 -33 -135 -14
-55 -29 -117 -32 -137 -9 -47 -25 -50 -26 -5 -1 30 -1 31 -9 7 -14 -43 -12
-60 7 -53 14 5 15 1 10 -28 -3 -19 -16 -90 -28 -159 -12 -69 -23 -127 -25
-129 -2 -2 -10 2 -19 9 -13 11 -15 9 -15 -13 0 -19 4 -25 15 -21 17 7 19 -7 9
-80 -6 -43 -24 -66 -24 -30 0 8 -4 12 -10 9 -5 -3 -10 -15 -10 -25 0 -14 5
-18 16 -13 15 5 16 -2 9 -73 -7 -78 -14 -101 -22 -76 -9 24 -23 11 -23 -20 0
-24 3 -29 10 -18 18 28 22 1 15 -99 -8 -100 -14 -117 -34 -83 -8 13 -10 6 -11
-33 0 -35 3 -45 10 -35 5 8 12 12 15 9 3 -4 2 -103 -2 -220 -7 -180 -10 -214
-23 -214 -11 0 -16 -13 -18 -45 -5 -62 6 -110 22 -104 10 4 14 -34 20 -182 4
-103 4 -189 1 -192 -3 -4 -10 0 -15 8 -7 10 -10 -2 -9 -40 0 -47 2 -52 11 -32
15 30 28 28 28 -6 0 -16 3 -65 6 -108 5 -73 4 -77 -10 -60 -15 19 -16 18 -16
-18 0 -33 2 -37 15 -26 9 7 17 11 19 9 2 -2 7 -39 11 -82 7 -69 6 -77 -9 -71
-12 4 -16 0 -16 -15 0 -23 16 -29 23 -8 8 23 16 1 23 -67 6 -62 5 -69 -9 -63
-13 5 -17 1 -17 -15 0 -17 3 -19 12 -10 20 20 26 14 33 -39 7 -52 1 -74 -15
-49 -7 11 -10 8 -10 -14 0 -24 2 -27 15 -16 9 7 17 11 19 9 1 -2 15 -69 30
-149 57 -301 178 -727 281 -995 15 -38 36 -95 48 -125 106 -281 283 -643 454
-928 41 -68 72 -126 70 -129 -6 -5 -57 60 -57 74 0 5 -10 18 -21 29 l-22 19
13 -25 c38 -71 198 -313 299 -450 197 -267 364 -463 606 -705 240 -242 447
-418 740 -631 132 -96 135 -98 135 -84 0 6 -8 14 -17 17 -10 4 -39 24 -64 45
-25 21 -49 38 -53 38 -4 0 -12 4 -19 10 -7 5 -32 26 -57 45 -96 74 -138 110
-135 114 2 2 55 -35 117 -81 189 -142 423 -295 663 -433 99 -57 428 -223 515
-259 25 -11 72 -31 105 -46 60 -27 183 -75 283 -111 28 -10 76 -28 105 -38
135 -50 457 -144 617 -181 52 -12 109 -26 125 -30 17 -5 94 -21 173 -36 78
-15 142 -31 142 -36 0 -4 -4 -8 -10 -8 -5 0 -10 -4 -10 -10 0 -5 9 -10 20 -10
13 0 18 5 14 15 -4 10 0 15 12 15 41 0 234 -35 234 -42 0 -4 -7 -8 -15 -8 -8
0 -15 -4 -15 -10 0 -5 13 -10 30 -10 23 0 28 3 23 17 -6 14 1 15 63 9 68 -7
90 -15 67 -23 -22 -8 -14 -23 12 -23 18 0 23 4 18 16 -6 15 3 16 88 10 52 -5
96 -10 98 -12 2 -2 -2 -10 -9 -19 -11 -13 -7 -15 26 -14 22 0 33 3 27 6 -7 2
-13 8 -13 11 0 4 176 7 390 7 215 0 390 -3 390 -7 0 -3 -6 -9 -12 -11 -7 -3 6
-6 30 -6 39 -1 57 12 30 22 -26 9 -1 15 86 22 80 7 89 6 83 -9 -5 -12 0 -16
18 -16 13 0 27 5 30 10 3 6 -1 10 -9 10 -9 0 -16 4 -16 8 0 4 60 16 133 25
236 32 649 114 837 167 19 5 69 19 110 30 256 72 611 192 755 255 17 7 64 27
105 43 209 84 512 236 695 351 88 55 115 73 209 139 25 18 46 29 46 25 0 -10
-53 -52 -97 -78 -18 -11 -33 -23 -33 -27 0 -4 -6 -8 -13 -8 -8 0 -22 -9 -32
-20 -10 -11 -22 -20 -27 -20 -4 0 -30 -16 -57 -35 -26 -19 -53 -35 -58 -35 -6
0 -18 -10 -29 -21 -19 -22 -19 -22 5 -9 57 30 285 183 386 260 163 123 377
304 364 309 -6 2 -25 -12 -42 -30 -18 -19 -47 -45 -66 -59 -19 -14 -47 -37
-63 -53 -25 -23 -48 -35 -48 -23 0 9 253 217 258 211 4 -3 0 -10 -8 -15 -8 -5
-12 -11 -9 -14 10 -10 325 285 585 548 378 382 572 606 734 850 75 112 91 146
55 116 -19 -16 -19 -1 0 27 45 64 183 328 273 523 17 36 51 109 76 163 25 55
46 101 46 103 0 2 13 32 28 66 16 35 42 99 59 143 17 44 43 111 57 149 35 90
110 315 131 391 29 107 62 239 75 300 7 33 16 74 20 90 5 17 11 51 15 78 3 26
10 47 16 47 5 0 9 -4 9 -10 0 -5 5 -10 10 -10 6 0 10 9 10 20 0 14 -5 18 -17
13 -14 -5 -15 -1 -10 33 3 21 11 75 17 119 12 80 19 101 27 78 8 -22 23 -14
23 12 0 19 -4 23 -17 18 -14 -6 -15 1 -9 63 7 68 15 90 23 67 8 -22 23 -14 23
12 0 18 -4 23 -16 18 -15 -6 -16 3 -9 83 4 49 9 91 11 93 2 3 11 -4 19 -15 13
-17 14 -15 15 30 0 47 -1 49 -16 30 -14 -17 -15 -9 -9 96 4 63 9 117 12 120 2
3 11 -4 19 -14 13 -18 14 -16 14 25 0 31 -3 40 -10 29 -5 -8 -12 -12 -15 -8
-3 3 -3 105 1 227 6 192 9 221 23 219 11 -2 16 7 18 32 5 48 -4 80 -21 74 -10
-4 -14 36 -20 202 -4 113 -5 209 -2 212 3 3 10 -6 15 -19 8 -20 10 -14 10 31
0 42 -2 51 -10 38 -23 -41 -26 -28 -56 296 -4 42 -3 48 11 43 12 -5 16 -1 16
15 0 17 -2 18 -15 8 -9 -7 -17 -11 -19 -9 -3 2 -8 32 -12 67 -6 55 -5 62 10
56 12 -4 16 0 16 15 0 23 -16 29 -23 9 -8 -23 -18 -2 -24 53 -6 50 -5 53 10
40 15 -12 17 -11 17 13 0 27 -15 36 -23 14 -7 -21 -16 -5 -23 42 -6 38 -5 43
9 37 19 -7 22 14 7 48 -8 18 -9 17 -9 -7 -1 -41 -18 -34 -25 10 -10 57 -65
289 -88 367 -55 194 -165 519 -213 630 -7 17 -25 58 -39 93 -48 120 -61 148
-181 387 -110 218 -277 509 -377 657 -40 59 -51 91 -23 68 26 -22 17 -1 -34
73 -524 769 -1185 1405 -1959 1884 -194 120 -588 331 -598 320 -3 -3 53 -34
123 -69 164 -83 281 -146 315 -170 14 -10 29 -18 33 -18 3 0 32 -17 63 -37 31
-21 74 -47 95 -58 20 -11 37 -23 37 -27 0 -5 5 -8 11 -8 6 0 24 -11 41 -25 53
-45 14 -26 -126 60 -76 47 -140 85 -141 85 -2 0 -43 23 -92 51 -89 51 -379
198 -463 233 -25 11 -68 29 -95 42 -220 99 -661 247 -915 307 -36 9 -94 23
-130 31 -68 16 -234 49 -307 61 -24 4 -43 11 -43 16 0 5 5 9 10 9 6 0 10 5 10
10 0 6 -11 10 -25 10 -19 0 -23 -4 -18 -17 6 -14 0 -15 -52 -9 -60 7 -80 15
-57 23 21 8 13 23 -13 23 -19 0 -23 -4 -18 -16 6 -15 -1 -16 -58 -10 -64 8
-84 15 -61 23 23 9 12 23 -18 23 -23 0 -28 -3 -23 -17 6 -14 -2 -15 -83 -9
-49 4 -91 9 -93 12 -3 2 4 11 15 19 17 13 15 14 -31 14 -27 -1 -42 -3 -32 -6
55 -14 -27 -18 -423 -18 -348 0 -439 3 -435 13 3 8 -7 12 -33 12 -35 -1 -36
-2 -18 -15z m866 -114 c0 -14 -28 -21 -60 -14 -19 3 -30 1 -30 -6 0 -7 33 -11
102 -11 94 0 100 1 82 16 -17 14 -8 15 115 10 74 -4 137 -8 140 -11 2 -3 -4
-12 -15 -20 -18 -13 -17 -14 18 -15 31 0 36 3 31 17 -6 14 2 15 73 9 43 -4 80
-9 83 -11 2 -3 -2 -11 -9 -20 -11 -13 -9 -15 13 -15 20 0 25 4 20 17 -6 14 0
15 48 9 55 -8 73 -15 52 -23 -22 -8 -14 -23 12 -23 18 0 23 4 19 15 -8 19 11
19 101 0 475 -100 940 -287 1421 -572 83 -50 135 -86 130 -91 -3 -2 -26 8 -52
22 -26 14 -49 24 -51 22 -3 -2 6 -10 19 -17 12 -7 89 -56 170 -110 455 -303
875 -684 1231 -1115 79 -96 258 -345 311 -433 21 -34 40 -60 43 -58 2 3 -10
26 -26 53 -17 27 -35 58 -40 69 -5 12 -16 27 -25 34 -9 7 -16 18 -16 24 0 5
-17 30 -37 56 -21 25 -45 57 -53 73 -8 15 -26 40 -40 55 -47 54 -97 118 -110
143 -48 91 152 -166 287 -370 149 -224 248 -403 359 -653 208 -466 330 -888
399 -1376 19 -136 19 -165 0 -157 -11 4 -15 -2 -15 -21 0 -26 1 -26 14 -7 8
10 17 17 19 14 3 -3 9 -59 13 -124 6 -108 5 -119 -10 -113 -14 6 -16 -3 -16
-73 0 -43 4 -81 9 -84 5 -3 8 17 7 46 -1 33 3 52 12 55 9 4 12 -49 12 -242 0
-193 -3 -246 -12 -242 -9 3 -12 25 -11 71 2 41 -1 65 -7 61 -6 -3 -10 -47 -10
-97 0 -79 2 -89 15 -78 13 11 15 5 15 -41 0 -94 -13 -219 -22 -219 -5 0 -13
10 -18 23 -7 18 -9 14 -9 -23 1 -25 3 -39 6 -32 9 23 23 12 23 -20 0 -18 -9
-103 -20 -188 -104 -793 -364 -1495 -793 -2140 -123 -186 -196 -284 -205 -275
-3 3 4 18 16 33 12 15 41 56 65 92 24 36 51 71 60 79 9 7 17 17 17 22 0 9 50
90 61 99 9 7 29 47 29 57 0 4 -21 -23 -46 -62 -48 -74 -179 -257 -240 -337
-39 -52 -38 -64 2 -21 44 48 33 19 -18 -45 -27 -35 -52 -61 -56 -58 -3 4 4 20
17 36 49 67 6 21 -130 -137 -315 -367 -691 -708 -1078 -977 -68 -47 -118 -86
-110 -86 17 0 137 81 180 121 17 16 36 29 41 29 6 0 25 12 44 28 80 66 115 87
99 63 -10 -18 -299 -226 -382 -276 -9 -5 -41 -27 -71 -47 -58 -40 -84 -49 -62
-23 26 31 3 22 -105 -42 -60 -35 -163 -92 -229 -126 -66 -33 -115 -62 -108
-65 7 -2 18 1 25 6 7 5 55 32 107 59 52 28 135 71 184 97 48 26 90 45 93 43 2
-3 -27 -24 -67 -47 -212 -124 -453 -241 -675 -330 -139 -55 -355 -131 -445
-156 -30 -9 -68 -20 -85 -24 -47 -14 -224 -57 -288 -71 -57 -12 -85 -7 -57 11
8 6 32 10 52 10 20 0 40 5 44 12 5 8 -2 9 -27 4 -19 -3 -51 -9 -71 -13 -21 -3
-38 -9 -38 -14 0 -5 5 -9 10 -9 6 0 10 -4 10 -9 0 -5 -40 -16 -89 -25 -111
-20 -125 -20 -117 -1 4 11 -1 15 -19 15 -26 0 -34 -15 -12 -23 6 -2 10 -7 7
-10 -5 -5 -121 -22 -320 -48 -47 -6 -105 -14 -130 -18 l-45 -6 -6 -75 c-4 -41
-12 -156 -18 -255 -36 -578 -60 -744 -121 -844 -29 -47 -37 -31 -11 24 11 24
21 50 21 57 0 7 -11 -10 -24 -37 -21 -47 -75 -105 -97 -105 -5 0 -9 -5 -9 -10
0 -6 14 -4 31 5 39 21 50 12 14 -11 -59 -38 -156 -36 -274 8 -88 33 -433 210
-576 295 -71 43 -182 114 -245 157 -128 87 -377 273 -386 287 -11 19 17 8 48
-19 18 -15 51 -41 73 -57 22 -16 45 -34 50 -40 15 -17 83 -65 91 -65 3 0 27
-15 53 -33 103 -75 148 -105 196 -132 77 -44 42 -16 -93 74 -235 155 -466 338
-747 590 -82 74 -139 123 -126 108 14 -15 21 -30 17 -34 -4 -4 -50 36 -103 90
-54 53 -94 99 -91 103 4 3 29 -16 55 -42 87 -88 100 -90 17 -4 -189 200 -343
379 -473 553 -41 53 -76 97 -78 97 -3 0 -1 -6 4 -12 68 -89 163 -218 173 -238
26 -50 -20 1 -110 120 -273 362 -443 689 -506 971 -21 91 -23 283 -5 359 57
241 190 521 399 840 135 206 338 477 349 466 7 -6 -45 -77 -64 -89 -7 -4 -13
-13 -13 -20 0 -7 -25 -41 -55 -77 -31 -36 -58 -73 -61 -82 -4 -10 -10 -18 -15
-18 -5 0 -9 -5 -9 -11 0 -6 -11 -25 -24 -42 -35 -47 -59 -87 -53 -87 3 0 44
55 91 123 231 330 573 713 876 980 132 116 366 295 513 392 48 32 85 60 83 62
-8 8 -70 -32 -161 -103 -11 -9 -30 -21 -42 -27 -13 -5 -23 -14 -23 -19 0 -4
-5 -8 -11 -8 -6 0 -24 -10 -39 -23 -16 -12 -59 -44 -95 -72 -37 -27 -81 -62
-98 -77 -17 -16 -36 -28 -42 -28 -21 1 129 121 335 267 97 69 226 153 234 153
17 0 3 -22 -19 -30 -14 -5 -25 -14 -25 -21 0 -10 55 18 90 46 19 15 277 164
345 198 28 15 45 26 39 27 -7 0 -38 -14 -70 -32 -197 -106 -197 -106 -249
-139 -22 -14 -51 -29 -65 -33 l-25 -7 25 20 c31 25 217 131 334 191 194 98
401 163 420 131 7 -11 -10 -15 -46 -12 -9 1 -19 -3 -23 -9 -4 -6 13 -10 49
-10 44 0 59 -4 76 -22 11 -12 20 -27 21 -32 1 -6 4 0 8 14 l7 25 17 -31 c32
-62 74 -261 107 -509 45 -348 81 -514 125 -581 12 -19 19 -21 57 -14 106 20
290 94 502 203 195 99 348 197 554 355 68 51 126 92 128 89 5 -4 -24 -29 -109
-94 -23 -18 -50 -39 -59 -48 -10 -8 -21 -15 -24 -15 -4 0 -34 -22 -68 -48 -77
-61 -182 -132 -194 -132 -5 0 -17 -10 -28 -21 l-19 -22 25 13 c89 47 376 256
540 394 244 206 569 522 765 744 37 41 39 58 3 25 -34 -31 -18 3 18 38 29 27
34 29 24 10 -37 -72 121 108 321 364 95 122 218 298 173 248 -16 -18 -48 -60
-72 -94 -24 -33 -46 -58 -49 -55 -4 3 10 30 31 59 296 415 450 702 527 982 8
29 14 96 14 160 -1 122 -14 173 -86 320 -84 173 -304 514 -488 755 -47 63 -58
87 -26 60 37 -31 7 15 -82 126 -185 229 -319 372 -258 277 13 -20 5 -16 -29
17 -51 49 -60 70 -18 43 15 -10 -27 40 -93 110 -65 71 -125 131 -131 135 -7 4
-46 39 -86 77 -106 100 -128 119 -128 112 0 -3 7 -13 16 -22 9 -9 14 -18 11
-21 -3 -3 -52 33 -109 81 -131 111 -135 115 -120 115 7 0 20 -9 29 -20 10 -11
21 -20 26 -20 5 0 30 -21 56 -46 47 -47 86 -75 80 -56 -6 14 -133 119 -272
224 -101 77 -402 280 -447 302 -23 12 34 -37 66 -56 76 -45 279 -182 282 -190
2 -4 20 -17 40 -30 41 -25 42 -26 91 -68 59 -51 22 -33 -68 34 -306 225 -733
477 -1045 616 -80 36 -218 87 -253 95 -30 6 -47 25 -22 25 5 0 7 5 4 10 -10
16 -35 12 -29 -5 5 -12 -3 -15 -39 -15 -38 0 -46 -3 -51 -22 -19 -68 -36 -199
-42 -321 -7 -137 -16 -169 -33 -125 -8 18 -10 12 -10 -32 0 -50 1 -53 12 -30
19 39 21 -205 3 -348 -27 -215 -71 -304 -175 -356 -93 -46 -338 -123 -596
-186 -411 -101 -717 -203 -1035 -342 -147 -65 -414 -197 -498 -247 -29 -17
-55 -31 -57 -31 -2 0 -63 -37 -137 -81 -235 -144 -458 -301 -656 -462 -40 -32
-75 -57 -78 -54 -3 3 2 11 11 18 9 8 29 25 44 39 15 14 38 32 51 40 12 8 51
38 86 65 61 48 92 71 179 135 22 17 45 34 51 39 6 5 51 35 100 66 49 32 100
66 114 75 14 9 33 19 43 23 9 3 17 11 17 18 0 30 -407 -255 -667 -468 -57 -46
-103 -86 -103 -89 0 -2 15 3 33 11 24 12 15 1 -38 -49 -38 -36 -73 -66 -77
-66 -19 0 -5 22 27 42 19 13 37 29 40 36 12 32 -51 -23 -240 -211 -205 -205
-333 -349 -468 -525 -85 -112 -200 -279 -165 -241 12 14 38 47 56 73 18 27 36
46 39 42 3 -3 -39 -74 -94 -158 -217 -330 -378 -655 -479 -968 -31 -97 -43
-139 -95 -320 -22 -79 -95 -381 -104 -432 -3 -21 -10 -38 -15 -38 -6 0 -10 5
-10 10 0 6 -4 10 -10 10 -5 0 -10 -9 -10 -20 0 -13 5 -18 15 -14 16 7 19 -13
9 -54 -5 -16 -12 -21 -24 -17 -14 4 -19 -2 -24 -31 -4 -20 -5 -38 -3 -40 2 -3
7 9 10 26 4 16 12 30 18 30 14 0 13 -5 -31 -245 -5 -27 -14 -84 -21 -125 -11
-76 -18 -95 -26 -72 -8 22 -23 13 -23 -14 0 -23 2 -25 16 -13 18 15 19 28 -6
-186 -7 -60 -14 -112 -16 -114 -2 -2 -10 2 -19 9 -13 11 -15 9 -15 -13 0 -17
4 -25 13 -22 9 4 12 -60 12 -299 0 -242 -3 -302 -12 -294 -10 8 -13 2 -13 -26
0 -35 14 -49 23 -23 9 25 16 -1 26 -93 6 -52 14 -117 18 -144 5 -43 4 -48 -11
-43 -12 5 -16 1 -16 -18 0 -14 5 -25 10 -25 6 0 10 5 10 10 0 6 4 10 8 10 8 0
42 -167 42 -204 0 -15 -3 -16 -15 -6 -13 10 -15 9 -15 -9 0 -17 4 -21 19 -16
14 4 20 0 25 -17 10 -41 7 -61 -9 -54 -17 6 -21 -19 -5 -29 5 -3 10 -1 10 4 0
28 20 7 26 -26 27 -152 155 -599 224 -783 17 -47 35 -96 40 -110 14 -46 128
-324 165 -405 124 -269 216 -441 394 -735 25 -41 80 -144 123 -228 76 -149 95
-211 63 -198 -10 3 -15 -1 -15 -14 0 -10 -5 -22 -10 -25 -8 -5 -8 -11 -1 -19
15 -18 3 -26 -41 -26 -28 0 -55 10 -95 36 -30 19 -53 38 -50 41 3 3 18 -4 34
-14 15 -11 36 -23 46 -26 27 -10 20 9 -9 22 -113 51 -441 386 -706 721 -17 21
-25 27 -21 15 3 -11 14 -28 25 -38 10 -10 18 -21 18 -25 0 -4 20 -29 45 -56
42 -46 59 -76 35 -61 -17 10 -170 207 -170 218 0 5 7 4 15 -3 30 -25 14 3 -69
118 -46 64 -96 136 -111 160 -15 23 -30 40 -33 38 -2 -3 17 -35 42 -72 49 -69
60 -114 14 -53 -25 33 -153 232 -188 294 -10 17 -41 71 -70 120 -56 95 -197
370 -242 470 -15 33 -41 91 -58 129 -31 68 -45 103 -97 236 -48 121 -169 484
-202 605 -19 66 -37 134 -42 150 -40 138 -128 573 -129 632 0 16 4 21 15 17
10 -4 15 0 15 15 0 23 -16 29 -23 9 -8 -23 -16 -3 -23 58 -7 54 -6 58 9 45 15
-12 17 -10 17 18 0 17 -4 31 -10 31 -5 0 -10 -4 -10 -10 0 -5 -4 -10 -9 -10
-11 0 -26 128 -17 138 4 3 11 0 16 -8 7 -11 10 -6 10 18 0 31 -14 44 -23 20
-9 -27 -16 1 -23 92 -7 88 -6 94 9 81 15 -12 17 -9 17 33 0 25 -4 46 -10 46
-5 0 -10 -9 -10 -20 0 -11 -4 -20 -9 -20 -10 0 -26 246 -19 295 l4 30 11 -25
c9 -19 12 33 11 230 0 140 -2 246 -5 235 -3 -11 -10 -24 -15 -30 -7 -7 -9 40
-4 149 4 88 9 162 11 165 3 2 12 -4 20 -15 13 -18 14 -16 15 25 0 39 -2 42
-17 30 -15 -13 -16 -7 -9 75 6 86 14 115 23 89 9 -26 23 -12 23 25 0 27 -3 33
-10 22 -16 -26 -23 -2 -15 65 7 66 12 74 33 53 9 -9 12 -6 12 16 0 25 -2 27
-17 15 -15 -13 -16 -9 -10 50 8 73 11 79 32 61 13 -10 15 -9 15 8 0 16 -4 20
-17 15 -14 -6 -15 0 -9 48 9 63 11 66 31 49 13 -10 15 -9 15 8 0 15 -5 20 -15
16 -20 -8 -19 9 9 146 141 679 344 1229 651 1765 99 172 218 352 222 337 3 -6
-7 -26 -21 -43 -14 -17 -26 -37 -26 -45 0 -8 -4 -14 -9 -14 -5 0 -17 -17 -26
-37 -10 -21 -24 -46 -33 -56 -8 -9 -13 -19 -10 -22 4 -4 128 181 163 245 8 13
7 13 -8 1 -26 -21 -30 -7 -7 20 14 16 23 20 26 12 3 -7 42 38 86 100 44 61
104 141 132 177 55 68 70 90 63 90 -7 0 -127 -149 -127 -158 0 -5 -12 -19 -27
-33 -41 -38 -22 -1 46 88 86 113 133 164 126 136 -9 -32 -2 -29 31 15 15 20
20 31 11 23 -38 -30 -27 1 17 54 49 56 63 67 52 39 -11 -28 8 -11 108 101 340
378 797 772 1224 1055 78 51 140 95 138 97 -9 9 -395 -255 -457 -312 -9 -8
-19 -15 -24 -15 -5 0 -17 -7 -27 -17 -10 -9 -20 -14 -23 -11 -5 4 46 45 180
145 65 49 356 244 372 250 16 6 16 5 4 -10 -24 -30 -8 -27 52 10 61 37 72 57
17 28 -50 -26 -46 -11 7 23 257 161 647 355 991 492 264 105 438 160 652 205
134 29 144 30 136 10 -4 -10 1 -15 14 -15 22 0 27 16 8 23 -30 10 -19 13 258
57 89 15 117 13 110 -5 -4 -11 2 -15 21 -15 26 0 26 1 7 14 -10 8 -17 17 -14
20 3 2 41 8 84 12 71 6 79 5 73 -9 -5 -14 0 -17 26 -17 30 1 31 1 13 15 -11 8
-18 17 -15 19 2 2 49 7 104 11 92 7 99 6 86 -9 -12 -14 -9 -16 32 -16 25 0 49
5 52 10 3 6 -3 10 -14 10 -12 0 -21 4 -21 9 0 10 227 25 275 19 l30 -4 -25
-11 c-20 -10 -6 -12 82 -12 63 -1 109 3 113 9 4 7 -9 10 -36 8 -27 -2 -43 2
-46 10 -4 9 52 12 256 12 147 0 261 -4 261 -9z m2455 -801 c41 -28 75 -55 75
-61 0 -11 -9 -6 -107 60 -46 31 -65 51 -48 51 3 0 39 -23 80 -50z m-6165 -44
c0 -2 -42 -31 -93 -65 -97 -64 -142 -84 -66 -29 24 17 46 35 49 39 12 18 110
67 110 55z m6372 -103 c187 -139 383 -302 373 -311 -3 -3 -20 8 -38 25 -17 17
-39 34 -49 39 -9 5 -36 27 -59 49 -44 41 -90 79 -129 105 -12 8 -38 30 -58 48
-20 17 -50 39 -67 47 -37 19 -103 75 -88 75 6 0 58 -34 115 -77z m425 -23 c51
-38 97 -70 103 -70 5 0 10 -3 10 -7 0 -5 17 -19 38 -33 49 -33 49 -33 103 -77
25 -21 65 -53 88 -72 23 -18 40 -36 37 -39 -3 -2 -36 20 -73 50 -98 79 -256
196 -345 257 -43 28 -78 54 -78 56 0 17 37 -4 117 -65z m-7009 -16 c-25 -24
-254 -191 -258 -187 -5 5 26 34 71 65 13 10 44 32 68 50 78 58 106 77 115 77
5 1 7 -2 4 -5z m-284 -215 c-12 -13 -20 -16 -22 -9 -3 7 2 16 9 21 25 16 32 9
13 -12z m-74 -59 c-46 -41 -60 -48 -60 -30 0 6 4 10 10 10 5 0 23 14 40 30 17
17 36 30 43 30 7 -1 -8 -19 -33 -40z m7395 -62 c34 -35 35 -38 10 -20 -49 36
-65 49 -65 56 0 15 19 3 55 -36z m394 33 c7 -5 12 -14 9 -21 -2 -7 -10 -4 -22
9 -19 21 -12 28 13 12z m-7696 -39 c-17 -15 -48 -40 -69 -57 -20 -16 -44 -37
-53 -46 -16 -15 -51 -32 -51 -24 0 8 185 155 195 155 5 0 -4 -13 -22 -28z
m-188 -12 c-29 -31 -42 -33 -31 -5 4 13 35 31 55 34 3 1 -8 -12 -24 -29z
m7955 -14 c22 -27 -5 -17 -31 10 -21 24 -22 26 -3 16 11 -6 26 -18 34 -26z
m-8070 -86 c-41 -38 -79 -69 -85 -70 -5 0 23 32 63 70 40 39 79 70 85 70 7 -1
-22 -32 -63 -70z m7800 -65 c63 -63 111 -117 107 -121 -5 -6 -237 222 -237
233 0 14 32 -14 130 -112z m365 65 c14 -22 -13 -8 -41 22 l-29 31 32 -22 c18
-12 35 -26 38 -31z m-8065 -56 c-8 -8 -23 -20 -34 -26 -19 -10 -18 -8 3 16 26
27 53 37 31 10z m8149 -14 c19 -16 32 -33 28 -37 -4 -4 -24 10 -45 30 -44 44
-32 49 17 7z m-8225 -51 c-10 -11 -28 -26 -39 -31 -14 -8 -12 -2 9 21 33 34
61 44 30 10z m-154 8 c0 -1 -70 -72 -157 -157 -86 -85 -139 -134 -118 -108 57
72 275 282 275 265z m49 -103 c-13 -14 -33 -30 -44 -36 -12 -6 -6 4 14 26 19
20 39 36 45 36 5 0 -1 -12 -15 -26z m8526 -54 c33 -33 57 -60 54 -60 -2 0 -31
27 -64 60 -33 33 -57 60 -54 60 2 0 31 -27 64 -60z m-425 -34 c0 -13 -49 34
-62 59 -6 12 4 6 26 -14 20 -19 36 -39 36 -45z m-2076 -31 c28 -25 47 -48 43
-52 -4 -4 -31 16 -60 45 -63 63 -51 68 17 7z m2196 -109 c0 -5 -20 11 -45 36
-25 25 -45 52 -45 59 1 15 89 -80 90 -95z m-8430 27 c-36 -37 -66 -69 -67 -72
-2 -2 -6 -1 -10 3 -8 7 116 136 131 136 6 0 -19 -30 -54 -67z m8894 -12 c59
-65 48 -66 -18 -1 -36 35 -66 69 -66 74 0 11 38 -22 84 -73z m-2459 -105 c43
-44 70 -76 64 -76 -3 0 -49 46 -104 102 -55 56 -77 82 -50 58 28 -24 68 -62
90 -84z m-6615 76 c0 -4 -16 -23 -35 -42 -42 -41 -46 -32 -7 16 26 33 42 43
42 26z m35 -112 c-41 -54 -65 -73 -65 -53 0 7 101 113 108 113 2 0 -18 -27
-43 -60z m9145 17 c0 -6 -9 -2 -20 8 -11 10 -20 23 -20 28 0 6 9 2 20 -8 11
-10 20 -23 20 -28z m-9270 -5 c0 -5 -14 -21 -32 -38 -30 -27 -31 -27 -17 -4 9
14 19 31 23 38 8 13 26 16 26 4z m9330 -65 c0 -6 -9 -2 -20 8 -11 10 -20 23
-20 28 0 6 9 2 20 -8 11 -10 20 -23 20 -28z m-9465 -97 c-37 -44 -69 -80 -71
-80 -8 0 16 39 39 63 12 13 31 36 42 51 32 42 47 57 52 52 3 -3 -25 -41 -62
-86z m166 53 c-20 -34 -38 -53 -52 -53 -7 0 2 16 21 35 38 39 46 43 31 18z
m9343 1 c23 -23 19 -40 -4 -19 -11 10 -20 22 -20 27 0 12 7 10 24 -8z m60 -70
c10 -25 1 -27 -19 -4 -15 17 -16 20 -3 20 9 0 19 -7 22 -16z m-2504 -31 c0 -5
23 -32 50 -62 44 -47 59 -71 46 -71 -1 0 -31 32 -65 70 -39 44 -57 70 -47 70
9 0 16 -3 16 -7z m2540 -24 c0 -6 -4 -7 -10 -4 -5 3 -10 11 -10 16 0 6 5 7 10
4 6 -3 10 -11 10 -16z m-9704 -47 c-18 -16 -18 -16 -6 6 6 13 14 21 18 18 3
-4 -2 -14 -12 -24z m9746 1 c15 -15 28 -31 28 -36 0 -5 17 -30 39 -56 64 -77
206 -280 199 -286 -2 -3 -29 30 -59 71 -84 118 -178 245 -217 292 -39 47 -33
56 10 15z m-9779 -45 c-19 -30 -154 -208 -158 -208 -15 0 -1 31 25 56 16 16
30 33 30 37 0 5 6 14 13 21 6 8 19 24 27 36 27 41 62 81 67 76 3 -2 1 -11 -4
-18z m7388 -118 c30 -36 60 -71 67 -78 11 -13 17 -32 8 -32 -6 0 -156 189
-156 197 0 9 8 0 81 -87z m-7490 -173 c-24 -39 -71 -92 -71 -80 0 17 80 126
87 119 3 -3 -4 -20 -16 -39z m1489 -950 c0 -1 -57 -58 -127 -127 -69 -69 -113
-107 -96 -85 46 61 223 229 223 212z m-280 -285 c0 -5 -13 -21 -30 -37 -35
-34 -40 -25 -7 15 22 29 37 37 37 22z m-80 -90 c0 -5 -12 -19 -27 -33 l-26
-24 19 33 c17 30 34 42 34 24z m-141 -178 c-119 -151 -128 -161 -129 -144 0
14 27 50 77 105 10 11 28 34 40 52 27 40 86 103 92 98 2 -2 -34 -52 -80 -111z
m6621 -814 c0 -6 -9 -18 -20 -27 -11 -10 -20 -22 -20 -28 0 -5 -17 -28 -38
-50 -53 -57 -112 -131 -112 -139 0 -4 -20 -28 -45 -53 -65 -65 -55 -43 23 51
37 44 98 120 135 169 68 87 77 96 77 77z m-304 -385 c-15 -23 -36 -34 -36 -18
0 10 43 54 48 48 3 -2 -3 -16 -12 -30z m-147 -157 c-15 -29 -69 -81 -77 -73
-5 5 76 95 85 95 2 0 -2 -10 -8 -22z m-151 -160 c-40 -52 -151 -161 -233 -231
-33 -28 12 22 100 111 88 89 161 162 163 162 2 0 -11 -19 -30 -42z m-2167 -61
c-1 -12 -15 -9 -19 4 -3 6 1 10 8 8 6 -3 11 -8 11 -12z m1859 -245 c0 -10 -75
-72 -86 -72 -5 0 10 18 31 40 38 39 55 49 55 32z m-131 -118 c-13 -14 -33 -30
-44 -36 -12 -6 -6 4 14 26 19 20 39 36 45 36 5 0 -1 -12 -15 -26z m-85 -79
c-31 -24 -39 -17 -13 11 13 14 25 20 27 14 2 -6 -4 -18 -14 -25z m-59 -45
c-10 -11 -23 -20 -28 -20 -6 0 -2 9 8 20 10 11 23 20 28 20 6 0 2 -9 -8 -20z
m-3015 -290 c0 -5 -15 -17 -32 -26 l-33 -17 24 27 c25 27 41 33 41 16z m-70
-54 c0 -3 -7 -12 -16 -20 -23 -23 -40 -19 -19 4 16 18 35 26 35 16z m-96 -97
c-9 -10 -20 -19 -24 -19 -11 0 -212 -199 -244 -242 -16 -21 -36 -38 -45 -38
-8 0 61 77 154 170 94 94 172 165 173 160 2 -6 -4 -20 -14 -31z m-360 -359
c-24 -36 -44 -51 -44 -33 0 7 61 73 67 73 2 0 -9 -18 -23 -40z m-64 -68 c0 -4
-17 -26 -37 -48 -21 -23 -53 -59 -70 -80 -18 -22 -33 -34 -33 -29 0 10 127
165 135 165 3 0 5 -3 5 -8z m6190 -1339 c0 -12 -99 -119 -100 -108 0 6 18 29
40 53 22 23 40 47 40 52 0 6 5 10 10 10 6 0 10 -3 10 -7z m-139 -166 l-33 -32
18 30 c20 33 36 47 43 39 3 -2 -10 -19 -28 -37z m-61 -65 c0 -4 -23 -30 -52
-57 -51 -49 -51 -50 -23 -10 53 71 75 92 75 67z m-280 -287 c-47 -47 -89 -85
-95 -85 -5 0 29 38 77 85 47 47 90 85 94 85 5 0 -29 -38 -76 -85z m-150 -140
c-18 -19 -36 -32 -39 -29 -6 6 54 64 66 64 4 0 -8 -16 -27 -35z m-85 -75 c-10
-11 -22 -20 -26 -20 -15 0 2 29 19 33 10 3 19 5 21 6 2 0 -4 -8 -14 -19z m-65
-55 c-26 -27 -42 -33 -34 -11 4 11 37 33 53 35 3 1 -6 -10 -19 -24z m-85 -70
c-22 -18 -41 -32 -43 -30 -8 7 53 64 68 64 8 0 -2 -15 -25 -34z m2140 -504
c-15 -27 -41 -62 -58 -78 l-31 -28 19 30 c80 130 126 179 70 76z m-10425 -111
c38 -58 70 -109 70 -114 0 -5 -34 39 -75 99 -41 60 -75 114 -75 119 0 14 2 11
80 -104z m10319 -42 c-11 -22 -16 -29 -56 -73 -10 -11 -36 -42 -57 -68 -21
-26 -41 -45 -44 -43 -3 3 20 36 49 73 30 37 67 85 83 106 30 41 46 44 25 5z
m-10106 -110 c47 -75 49 -78 43 -78 -8 0 -86 108 -86 120 0 19 9 10 43 -42z
m-93 -20 c33 -45 41 -74 12 -42 -24 26 -52 67 -52 76 0 16 11 7 40 -34z m2691
-97 c16 -18 35 -43 41 -55 l11 -21 -23 20 c-30 27 -140 161 -140 172 0 7 24
-18 111 -116z m-2541 -102 c36 -46 100 -126 143 -177 44 -51 76 -96 72 -100
-4 -4 -15 4 -26 18 -31 41 -72 92 -99 120 -14 15 -32 38 -40 50 -8 13 -24 33
-35 44 -11 12 -33 40 -48 64 -15 23 -31 42 -35 42 -9 0 -42 53 -42 67 1 10 24
-17 110 -128z m9871 114 c-20 -37 -40 -58 -47 -50 -4 4 5 21 21 37 33 34 40
38 26 13z m-83 -97 c-10 -23 -38 -44 -38 -29 0 7 41 53 47 53 1 0 -2 -11 -9
-24z m-7123 -58 l28 -43 -37 34 c-35 34 -44 51 -27 51 4 0 21 -19 36 -42z
m7040 -30 c-20 -31 -125 -132 -125 -122 0 8 130 144 137 144 2 0 -3 -10 -12
-22z m-9485 -70 c0 -6 -7 -5 -15 2 -8 7 -15 17 -15 22 0 6 7 5 15 -2 8 -7 15
-17 15 -22z m54 -60 l19 -33 -32 29 c-35 33 -36 36 -18 36 7 0 21 -15 31 -32z
m9167 -145 c-61 -65 -121 -127 -134 -138 -12 -11 -47 -42 -77 -69 -30 -28 28
34 130 137 102 103 186 187 188 187 2 0 -46 -53 -107 -117z m-9071 40 l33 -48
-41 40 c-41 38 -51 55 -34 55 5 0 24 -21 42 -47z m-43 -90 c-8 -8 -97 85 -97
102 0 5 23 -14 52 -42 29 -29 49 -56 45 -60z m2677 22 c21 -20 36 -39 32 -42
-4 -4 -30 17 -59 46 -56 57 -37 54 27 -4z m-2515 -52 c2 -2 1 -6 -2 -10 -8 -8
-57 36 -57 50 0 6 12 0 28 -14 15 -13 29 -25 31 -26z m-9 -119 c69 -70 118
-123 110 -119 -33 18 -254 245 -238 245 2 0 59 -57 128 -126z m2637 66 c6 0
13 -7 17 -15 9 -25 -8 -17 -40 17 -16 18 -20 25 -8 15 11 -9 25 -17 31 -17z
m67 -55 c10 -7 16 -19 14 -25 -2 -6 -14 0 -27 14 -26 28 -18 35 13 11z m-2564
-20 c13 -14 19 -25 13 -25 -5 0 -20 11 -33 25 -13 14 -19 25 -13 25 5 0 20
-11 33 -25z m2645 -64 c-3 -3 -18 8 -33 23 l-27 29 32 -23 c18 -13 30 -26 28
-29z m-2580 8 c11 -17 -1 -21 -15 -4 -8 9 -8 15 -2 15 6 0 14 -5 17 -11z
m2640 -49 c12 -19 -12 -10 -31 11 -19 22 -19 22 3 10 12 -6 25 -16 28 -21z
m5749 -55 c-9 -14 -20 -25 -24 -25 -4 0 -42 -34 -85 -75 -42 -41 -82 -75 -89
-75 -12 1 194 199 207 200 4 0 0 -11 -9 -25z m-8393 -21 c20 -22 26 -32 14
-26 -25 13 -72 62 -59 62 6 0 26 -16 45 -36z m129 -115 c30 -27 44 -45 31 -38
-29 14 -109 89 -96 89 6 0 35 -23 65 -51z m120 -99 c25 -22 40 -40 35 -40 -6
0 -31 18 -55 40 -24 22 -40 40 -35 40 6 0 30 -18 55 -40z m7650 -200 c0 -6
-11 -15 -25 -20 -14 -5 -25 -14 -25 -20 0 -5 -6 -10 -13 -10 -7 0 -20 -8 -29
-17 -23 -26 -60 -53 -72 -53 -14 0 7 20 84 79 67 52 80 58 80 41z"/>
<path d="M6448 12613 c18 -2 45 -2 60 0 15 2 0 4 -33 4 -33 0 -45 -2 -27 -4z"/>
<path d="M5898 12593 c6 -2 18 -2 25 0 6 3 1 5 -13 5 -14 0 -19 -2 -12 -5z"/>
<path d="M5963 12593 c9 -2 23 -2 30 0 6 3 -1 5 -18 5 -16 0 -22 -2 -12 -5z"/>
<path d="M6858 12593 c7 -3 16 -2 19 1 4 3 -2 6 -13 5 -11 0 -14 -3 -6 -6z"/>
<path d="M5643 12573 c9 -2 25 -2 35 0 9 3 1 5 -18 5 -19 0 -27 -2 -17 -5z"/>
<path d="M7128 12573 c6 -2 18 -2 25 0 6 3 1 5 -13 5 -14 0 -19 -2 -12 -5z"/>
<path d="M5438 12553 c6 -2 18 -2 25 0 6 3 1 5 -13 5 -14 0 -19 -2 -12 -5z"/>
<path d="M7288 12553 c7 -3 16 -2 19 1 4 3 -2 6 -13 5 -11 0 -14 -3 -6 -6z"/>
<path d="M5195 12530 c-3 -5 3 -10 15 -10 12 0 18 5 15 10 -3 6 -10 10 -15 10
-5 0 -12 -4 -15 -10z"/>
<path d="M7460 12530 c0 -5 7 -10 16 -10 8 0 12 5 9 10 -3 6 -10 10 -16 10 -5
0 -9 -4 -9 -10z"/>
<path d="M5065 12510 c-3 -6 5 -10 19 -10 14 0 28 5 31 10 3 6 -5 10 -19 10
-14 0 -28 -4 -31 -10z"/>
<path d="M7540 12510 c20 -13 40 -13 40 0 0 6 -12 10 -27 10 -22 0 -25 -2 -13
-10z"/>
<path d="M7635 12490 c3 -5 13 -10 21 -10 8 0 12 5 9 10 -3 6 -13 10 -21 10
-8 0 -12 -4 -9 -10z"/>
<path d="M4855 12470 c-7 -12 19 -12 55 0 22 7 21 8 -12 9 -20 1 -40 -3 -43
-9z"/>
<path d="M7695 12470 c28 -12 47 -12 40 0 -3 6 -18 10 -33 9 -24 0 -25 -1 -7
-9z"/>
<path d="M7751 12456 c12 -10 59 -15 59 -6 0 5 -14 10 -32 10 -17 0 -29 -2
-27 -4z"/>
<path d="M4768 12443 c7 -3 16 -2 19 1 4 3 -2 6 -13 5 -11 0 -14 -3 -6 -6z"/>
<path d="M7905 12410 c28 -12 37 -12 30 0 -3 6 -16 10 -28 9 -21 0 -21 -1 -2
-9z"/>
<path d="M4540 12390 c0 -12 8 -12 35 0 18 8 17 9 -7 9 -16 1 -28 -3 -28 -9z"/>
<path d="M7965 12390 c28 -12 37 -12 30 0 -3 6 -16 10 -28 9 -21 0 -21 -1 -2
-9z"/>
<path d="M4485 12370 c-3 -5 -2 -10 4 -10 5 0 13 5 16 10 3 6 2 10 -4 10 -5 0
-13 -4 -16 -10z"/>
<path d="M8035 12365 c52 -22 78 -28 71 -16 -4 6 -16 11 -26 11 -10 0 -22 5
-25 10 -3 6 -16 10 -28 9 -19 -1 -18 -2 8 -14z"/>
<path d="M4410 12350 c-8 -5 -24 -11 -34 -15 -10 -3 -17 -8 -14 -10 6 -6 69
14 83 26 12 12 -15 11 -35 -1z"/>
<path d="M8135 12330 c3 -5 11 -10 16 -10 6 0 7 5 4 10 -3 6 -11 10 -16 10 -6
0 -7 -4 -4 -10z"/>
<path d="M4305 12310 c-7 -12 2 -12 30 0 19 8 19 9 -2 9 -12 1 -25 -3 -28 -9z"/>
<path d="M8180 12310 c20 -13 33 -13 25 0 -3 6 -14 10 -23 10 -15 0 -15 -2 -2
-10z"/>
<path d="M4255 12290 c-8 -13 5 -13 25 0 13 8 13 10 -2 10 -9 0 -20 -4 -23
-10z"/>
<path d="M8230 12290 c20 -13 33 -13 25 0 -3 6 -14 10 -23 10 -15 0 -15 -2 -2
-10z"/>
<path d="M4205 12270 c-8 -13 5 -13 25 0 13 8 13 10 -2 10 -9 0 -20 -4 -23
-10z"/>
<path d="M8303 12259 c22 -11 41 -18 44 -15 5 5 -62 36 -76 36 -3 -1 11 -10
32 -21z"/>
<path d="M4092 12229 c-24 -11 -42 -23 -39 -25 2 -3 29 6 58 20 30 13 47 25
39 25 -8 0 -35 -9 -58 -20z"/>
<path d="M8393 12219 c22 -11 41 -18 44 -16 5 6 -56 37 -71 37 -6 -1 6 -10 27
-21z"/>
<path d="M4010 12190 c-8 -5 -10 -10 -5 -10 6 0 17 5 25 10 8 5 11 10 5 10 -5
0 -17 -5 -25 -10z"/>
<path d="M8540 12150 c98 -51 111 -57 95 -41 -15 14 -166 91 -179 91 -6 0 32
-23 84 -50z"/>
<path d="M3941 12164 c-18 -8 -31 -17 -28 -20 3 -3 22 4 44 15 44 23 34 26
-16 5z"/>
<path d="M3851 12124 c-18 -8 -31 -17 -28 -20 3 -3 22 4 44 15 44 23 34 26
-16 5z"/>
<path d="M3763 12086 c-19 -9 -32 -26 -20 -26 8 0 67 32 67 36 0 7 -24 2 -47
-10z"/>
<path d="M8650 12096 c0 -2 42 -27 93 -55 50 -28 112 -63 137 -78 28 -17 40
-21 31 -10 -7 9 -25 23 -40 30 -14 8 -44 24 -66 37 -122 70 -155 87 -155 76z"/>
<path d="M3705 12050 c-3 -6 1 -7 9 -4 18 7 21 14 7 14 -6 0 -13 -4 -16 -10z"/>
<path d="M3648 12024 c-39 -21 -35 -28 5 -8 37 19 44 24 31 24 -5 -1 -21 -8
-36 -16z"/>
<path d="M3535 11970 c-27 -16 -76 -43 -107 -59 -31 -17 -60 -36 -64 -42 -4
-7 17 1 47 18 30 17 86 47 124 68 80 43 84 45 64 44 -8 0 -36 -14 -64 -29z"/>
<path d="M6303 11943 c9 -2 25 -2 35 0 9 3 1 5 -18 5 -19 0 -27 -2 -17 -5z"/>
<path d="M6267 11933 c-4 -3 -7 -11 -7 -17 0 -6 5 -5 12 2 6 6 9 14 7 17 -3 3
-9 2 -12 -2z"/>
<path d="M6455 11910 c3 -5 16 -10 28 -9 21 0 21 1 2 9 -28 12 -37 12 -30 0z"/>
<path d="M6515 11890 c3 -5 14 -10 23 -10 15 0 15 2 2 10 -20 13 -33 13 -25 0z"/>
<path d="M3273 11824 c-29 -19 -53 -37 -53 -40 0 -5 110 55 125 68 5 5 3 8 -5
8 -8 0 -39 -16 -67 -36z"/>
<path d="M6615 11850 c3 -5 14 -10 23 -10 15 0 15 2 2 10 -20 13 -33 13 -25 0z"/>
<path d="M6660 11830 c0 -5 7 -10 16 -10 9 0 41 -14 71 -30 31 -17 61 -29 67
-27 6 2 -25 20 -68 40 -88 41 -86 41 -86 27z"/>
<path d="M6835 11750 c3 -5 11 -10 16 -10 6 0 7 5 4 10 -3 6 -11 10 -16 10 -6
0 -7 -4 -4 -10z"/>
<path d="M6875 11730 c3 -5 11 -10 16 -10 6 0 7 5 4 10 -3 6 -11 10 -16 10 -6
0 -7 -4 -4 -10z"/>
<path d="M6930 11701 c14 -11 29 -21 33 -21 5 0 22 -9 38 -21 16 -11 35 -19
42 -16 6 2 -17 19 -53 38 -81 42 -91 46 -60 20z"/>
<path d="M6212 11650 c0 -19 2 -27 5 -17 2 9 2 25 0 35 -3 9 -5 1 -5 -18z"/>
<path d="M7060 11636 c0 -4 52 -37 99 -63 43 -24 33 -6 -11 19 -63 37 -88 49
-88 44z"/>
<path d="M7209 11547 c7 -9 27 -23 44 -32 59 -29 48 -13 -18 25 -28 17 -36 19
-26 7z"/>
<path d="M6193 11140 c0 -25 2 -35 4 -22 2 12 2 32 0 45 -2 12 -4 2 -4 -23z"/>
<path d="M6181 11024 c0 -11 3 -14 6 -6 3 7 2 16 -1 19 -3 4 -6 -2 -5 -13z"/>
<path d="M6171 10964 c0 -11 3 -14 6 -6 3 7 2 16 -1 19 -3 4 -6 -2 -5 -13z"/>
<path d="M6161 10904 c0 -11 3 -14 6 -6 3 7 2 16 -1 19 -3 4 -6 -2 -5 -13z"/>
<path d="M6151 10864 c0 -11 3 -14 6 -6 3 7 2 16 -1 19 -3 4 -6 -2 -5 -13z"/>
<path d="M6116 10776 c-10 -19 -38 -45 -64 -60 -26 -15 -36 -24 -22 -20 38 10
79 42 96 76 8 16 14 32 12 34 -2 2 -12 -12 -22 -30z"/>
<path d="M5970 10680 c-8 -5 -10 -10 -5 -10 6 0 17 5 25 10 8 5 11 10 5 10 -5
0 -17 -5 -25 -10z"/>
<path d="M5890 10650 c-13 -8 -13 -10 2 -10 9 0 20 5 23 10 8 13 -5 13 -25 0z"/>
<path d="M5835 10630 c-3 -5 1 -10 9 -10 9 0 16 5 16 10 0 6 -4 10 -9 10 -6 0
-13 -4 -16 -10z"/>
<path d="M5765 10610 c-19 -8 -19 -9 2 -9 12 -1 25 4 28 9 7 12 -2 12 -30 0z"/>
<path d="M5695 10590 c-18 -8 -17 -9 8 -9 15 -1 27 4 27 9 0 12 -8 12 -35 0z"/>
<path d="M5545 10550 c-17 -7 -15 -9 12 -9 17 -1 35 4 38 9 7 12 -22 12 -50 0z"/>
<path d="M5485 10530 c-3 -5 1 -10 9 -10 8 0 18 5 21 10 3 6 -1 10 -9 10 -8 0
-18 -4 -21 -10z"/>
<path d="M5390 10510 c-24 -8 -24 -8 7 -9 17 -1 35 4 38 9 7 11 -9 11 -45 0z"/>
<path d="M5310 10490 c-24 -8 -24 -8 7 -9 17 -1 35 4 38 9 7 11 -9 11 -45 0z"/>
<path d="M5230 10470 c-24 -8 -24 -8 7 -9 17 -1 35 4 38 9 7 11 -9 11 -45 0z"/>
<path d="M5155 10450 c-18 -8 -17 -9 7 -9 15 -1 30 4 33 9 7 12 -12 12 -40 0z"/>
<path d="M5085 10430 c-13 -5 -14 -9 -5 -9 8 0 24 4 35 9 13 5 14 9 5 9 -8 0
-24 -4 -35 -9z"/>
<path d="M1572 10400 c-12 -12 -22 -24 -22 -27 0 -4 11 4 25 17 23 22 29 30
22 30 -2 0 -13 -9 -25 -20z"/>
<path d="M5025 10410 c-19 -8 -19 -9 2 -9 12 -1 25 4 28 9 7 12 -2 12 -30 0z"/>
<path d="M4978 10393 c7 -3 16 -2 19 1 4 3 -2 6 -13 5 -11 0 -14 -3 -6 -6z"/>
<path d="M4915 10375 c-23 -10 -26 -13 -10 -14 11 0 29 6 39 14 24 19 11 19
-29 0z"/>
<path d="M4823 10347 c-38 -14 -52 -27 -30 -27 9 0 19 5 22 10 3 6 17 10 30
10 13 0 27 5 30 10 8 13 -12 12 -52 -3z"/>
<path d="M4730 10310 c-13 -8 -13 -10 2 -10 9 0 20 5 23 10 8 13 -5 13 -25 0z"/>
<path d="M4635 10275 c-16 -7 -23 -14 -15 -14 8 0 26 6 40 14 32 18 14 18 -25
0z"/>
<path d="M4485 10215 c-27 -13 -45 -24 -39 -24 13 -1 104 38 104 44 0 9 -14 4
-65 -20z"/>
<path d="M4370 10164 l-25 -15 25 7 c14 3 29 10 35 15 15 14 -7 10 -35 -7z"/>
<path d="M4270 10120 c-19 -11 -30 -19 -24 -20 12 0 74 29 74 36 0 8 -15 3
-50 -16z"/>
<path d="M10750 10122 c6 -13 14 -21 18 -18 3 4 -2 14 -12 24 -18 16 -18 16
-6 -6z"/>
<path d="M4210 10090 c-9 -6 -10 -10 -3 -10 6 0 15 5 18 10 8 12 4 12 -15 0z"/>
<path d="M10785 10063 c8 -18 18 -33 20 -33 10 0 4 16 -16 40 l-20 25 16 -32z"/>
<path d="M4100 10038 c-203 -109 -241 -130 -238 -134 2 -2 29 10 59 26 30 17
102 54 161 83 59 28 108 55 108 60 0 12 -11 7 -90 -35z"/>
<path d="M8890 10031 c0 -5 12 -24 26 -41 36 -42 124 -164 159 -219 72 -112
125 -189 141 -201 15 -12 14 -7 -6 25 -52 86 -295 431 -311 441 -5 3 -9 1 -9
-5z"/>
<path d="M10835 9970 c22 -45 29 -52 20 -20 -4 14 -14 32 -22 40 -12 12 -11 7
2 -20z"/>
<path d="M10870 9905 c0 -5 5 -17 10 -25 5 -8 10 -10 10 -5 0 6 -5 17 -10 25
-5 8 -10 11 -10 5z"/>
<path d="M3767 9854 c-43 -25 -77 -48 -74 -50 3 -3 24 7 48 21 24 14 59 33 77
42 17 9 32 20 32 25 0 11 4 13 -83 -38z"/>
<path d="M10907 9825 c9 -19 19 -33 21 -30 6 6 -21 65 -30 65 -4 0 0 -16 9
-35z"/>
<path d="M10950 9735 c1 -6 7 -21 16 -35 l15 -25 -7 25 c-7 26 -24 52 -24 35z"/>
<path d="M10990 9645 c1 -6 7 -21 16 -35 l15 -25 -7 25 c-7 26 -24 52 -24 35z"/>
<path d="M1000 9600 c-6 -11 -8 -20 -6 -20 3 0 10 9 16 20 6 11 8 20 6 20 -3
0 -10 -9 -16 -20z"/>
<path d="M969 9553 c-27 -34 -111 -194 -105 -201 2 -1 21 28 41 65 21 37 49
87 62 111 26 43 27 55 2 25z"/>
<path d="M11030 9555 c0 -5 5 -17 10 -25 5 -8 10 -10 10 -5 0 6 -5 17 -10 25
-5 8 -10 11 -10 5z"/>
<path d="M9250 9516 c0 -14 108 -186 116 -186 5 0 -32 67 -79 143 -26 43 -37
55 -37 43z"/>
<path d="M11062 9470 c10 -30 28 -50 28 -31 0 5 -4 13 -10 16 -5 3 -10 15 -10
26 0 10 -4 19 -9 19 -6 0 -6 -12 1 -30z"/>
<path d="M847 9333 c-4 -3 -7 -11 -7 -17 0 -6 5 -5 12 2 6 6 9 14 7 17 -3 3
-9 2 -12 -2z"/>
<path d="M9370 9306 c0 -8 5 -18 10 -21 6 -4 17 -23 25 -42 9 -20 18 -34 21
-31 6 6 -43 108 -51 108 -3 0 -5 -6 -5 -14z"/>
<path d="M825 9289 c-4 -6 -5 -12 -2 -15 2 -3 7 2 10 11 7 17 1 20 -8 4z"/>
<path d="M11131 9293 c0 -4 4 -17 9 -28 8 -19 9 -19 9 2 1 12 -3 25 -9 28 -5
3 -10 3 -9 -2z"/>
<path d="M805 9249 c-4 -6 -5 -12 -2 -15 2 -3 7 2 10 11 7 17 1 20 -8 4z"/>
<path d="M9431 9195 c0 -5 9 -28 20 -50 10 -22 16 -29 13 -15 -7 28 -33 80
-33 65z"/>
<path d="M731 9097 c-29 -64 -25 -72 5 -14 14 27 23 51 20 54 -2 3 -14 -15
-25 -40z"/>
<path d="M11191 9115 c1 -19 18 -51 18 -35 0 8 -4 22 -9 30 -5 8 -9 11 -9 5z"/>
<path d="M9481 9054 c0 -11 3 -14 6 -6 3 7 2 16 -1 19 -3 4 -6 -2 -5 -13z"/>
<path d="M11211 9044 c0 -11 3 -14 6 -6 3 7 2 16 -1 19 -3 4 -6 -2 -5 -13z"/>
<path d="M11230 8975 c0 -8 4 -15 10 -15 5 0 7 7 4 15 -4 8 -8 15 -10 15 -2 0
-4 -7 -4 -15z"/>
<path d="M11251 8904 c0 -11 3 -14 6 -6 3 7 2 16 -1 19 -3 4 -6 -2 -5 -13z"/>
<path d="M645 8899 c-4 -6 -5 -12 -2 -15 2 -3 7 2 10 11 7 17 1 20 -8 4z"/>
<path d="M624 8854 c-3 -10 -10 -28 -14 -39 -13 -29 -23 -71 -17 -65 10 10 48
113 43 118 -3 3 -8 -4 -12 -14z"/>
<path d="M9492 8835 c0 -16 2 -22 5 -12 2 9 2 23 0 30 -3 6 -5 -1 -5 -18z"/>
<path d="M9476 8791 c-4 -7 -5 -15 -2 -18 9 -9 19 4 14 18 -4 11 -6 11 -12 0z"/>
<path d="M11291 8744 c0 -11 3 -14 6 -6 3 7 2 16 -1 19 -3 4 -6 -2 -5 -13z"/>
<path d="M9458 8715 c-3 -6 -8 -28 -11 -50 l-7 -40 15 39 c14 37 16 73 3 51z"/>
<path d="M11301 8710 c0 -8 6 -40 14 -70 10 -41 13 -47 14 -25 0 17 -6 48 -14
70 -8 22 -14 33 -14 25z"/>
<path d="M560 8688 c0 -19 2 -20 10 -8 13 19 13 30 0 30 -5 0 -10 -10 -10 -22z"/>
<path d="M547 8653 c-4 -3 -7 -11 -7 -17 0 -6 5 -5 12 2 6 6 9 14 7 17 -3 3
-9 2 -12 -2z"/>
<path d="M9416 8585 c-9 -26 -7 -32 5 -12 6 10 9 21 6 23 -2 3 -7 -2 -11 -11z"/>
<path d="M11330 8565 c0 -11 5 -27 10 -35 8 -12 10 -12 10 5 0 11 -5 27 -10
35 -8 12 -10 12 -10 -5z"/>
<path d="M516 8555 c-9 -26 -7 -32 5 -12 6 10 9 21 6 23 -2 3 -7 -2 -11 -11z"/>
<path d="M9397 8543 c-4 -3 -7 -13 -7 -22 1 -13 3 -13 11 2 11 19 8 33 -4 20z"/>
<path d="M9370 8476 c-15 -39 -12 -46 6 -13 9 16 13 31 10 34 -3 3 -10 -6 -16
-21z"/>
<path d="M11350 8441 c0 -11 5 -23 10 -26 6 -3 10 3 10 14 0 11 -4 23 -10 26
-5 3 -10 -3 -10 -14z"/>
<path d="M9345 8419 c-4 -6 -5 -12 -2 -15 2 -3 7 2 10 11 7 17 1 20 -8 4z"/>
<path d="M11361 8384 c0 -11 3 -14 6 -6 3 7 2 16 -1 19 -3 4 -6 -2 -5 -13z"/>
<path d="M9310 8350 c-11 -22 -18 -40 -15 -40 2 0 14 18 25 40 11 22 18 40 15
40 -2 0 -14 -18 -25 -40z"/>
<path d="M447 8343 c-4 -3 -7 -11 -7 -17 0 -6 5 -5 12 2 6 6 9 14 7 17 -3 3
-9 2 -12 -2z"/>
<path d="M11370 8305 c0 -15 4 -24 10 -20 6 3 10 12 10 20 0 8 -4 17 -10 20
-6 4 -10 -5 -10 -20z"/>
<path d="M9270 8287 c0 -7 -26 -53 -58 -102 -60 -93 -79 -131 -62 -120 9 6
140 221 140 231 0 2 -4 4 -10 4 -5 0 -10 -6 -10 -13z"/>
<path d="M427 8284 c-4 -4 -7 -19 -6 -33 l0 -26 10 24 c10 26 8 47 -4 35z"/>
<path d="M407 8213 c-4 -3 -7 -16 -6 -27 0 -19 1 -19 10 3 10 24 8 36 -4 24z"/>
<path d="M1933 8108 c-58 -93 -60 -96 -37 -76 19 16 89 138 80 138 -2 0 -22
-28 -43 -62z"/>
<path d="M391 8134 c0 -11 3 -14 6 -6 3 7 2 16 -1 19 -3 4 -6 -2 -5 -13z"/>
<path d="M381 8094 c0 -11 3 -14 6 -6 3 7 2 16 -1 19 -3 4 -6 -2 -5 -13z"/>
<path d="M367 8064 c-4 -4 -7 -19 -6 -33 l0 -26 10 24 c10 26 8 47 -4 35z"/>
<path d="M9111 8021 c-24 -33 -28 -56 -5 -26 20 26 36 55 30 55 -3 0 -14 -13
-25 -29z"/>
<path d="M1861 7992 c-7 -13 -11 -26 -8 -28 8 -8 29 25 25 38 -3 8 -9 4 -17
-10z"/>
<path d="M345 7980 c-3 -5 -1 -10 4 -10 6 0 11 5 11 10 0 6 -2 10 -4 10 -3 0
-8 -4 -11 -10z"/>
<path d="M11402 7970 c0 -14 2 -19 5 -12 2 6 2 18 0 25 -3 6 -5 1 -5 -13z"/>
<path d="M1797 7878 c-56 -101 -89 -170 -78 -164 5 4 22 32 37 64 16 31 31 59
34 62 10 9 50 93 46 97 -2 2 -19 -24 -39 -59z"/>
<path d="M331 7906 c-7 -13 -11 -32 -9 -42 3 -13 8 -7 16 20 13 47 11 56 -7
22z"/>
<path d="M305 7807 c-4 -10 -5 -21 -1 -24 10 -10 18 4 13 24 -4 17 -4 17 -12
0z"/>
<path d="M284 7709 c-3 -6 -1 -16 5 -22 8 -8 11 -5 11 11 0 24 -5 28 -16 11z"/>
<path d="M1681 7654 c-12 -26 -20 -48 -17 -51 2 -3 14 17 25 43 27 61 21 67
-8 8z"/>
<path d="M281 7644 c0 -11 3 -14 6 -6 3 7 2 16 -1 19 -3 4 -6 -2 -5 -13z"/>
<path d="M1651 7589 c-1 -4 -8 -23 -16 -43 -8 -20 -13 -36 -10 -36 9 0 36 62
31 73 -2 7 -5 9 -5 6z"/>
<path d="M262 7530 c0 -14 2 -19 5 -12 2 6 2 18 0 25 -3 6 -5 1 -5 -13z"/>
<path d="M1606 7485 c-9 -26 -7 -32 5 -12 6 10 9 21 6 23 -2 3 -7 -2 -11 -11z"/>
<path d="M1576 7409 c-9 -23 -15 -43 -13 -46 3 -2 12 15 21 38 9 23 15 43 13
46 -3 2 -12 -15 -21 -38z"/>
<path d="M242 7400 c0 -14 2 -19 5 -12 2 6 2 18 0 25 -3 6 -5 1 -5 -13z"/>
<path d="M1547 7337 c-11 -29 -9 -43 4 -30 6 6 9 19 7 29 -3 18 -4 18 -11 1z"/>
<path d="M222 7245 c0 -16 2 -22 5 -12 2 9 2 23 0 30 -3 6 -5 -1 -5 -18z"/>
<path d="M1516 7246 c-3 -13 -9 -31 -12 -40 -3 -9 -1 -16 5 -16 6 0 11 9 11
21 0 11 5 29 10 40 6 11 7 19 1 19 -5 0 -12 -11 -15 -24z"/>
<path d="M11402 7245 c0 -16 2 -22 5 -12 2 9 2 23 0 30 -3 6 -5 -1 -5 -18z"/>
<path d="M1476 7128 c-10 -39 -7 -44 9 -14 17 33 18 36 6 36 -5 0 -11 -10 -15
-22z"/>
<path d="M1447 7016 c-5 -15 -6 -31 -3 -34 8 -8 18 25 14 45 -3 13 -6 10 -11
-11z"/>
<path d="M11382 6965 c0 -16 2 -22 5 -12 2 9 2 23 0 30 -3 6 -5 -1 -5 -18z"/>
<path d="M1410 6889 c-6 -23 -9 -43 -6 -46 6 -7 12 9 20 55 8 45 -1 40 -14 -9z"/>
<path d="M5910 6910 c0 -5 4 -10 9 -10 6 0 13 5 16 10 3 6 -1 10 -9 10 -9 0
-16 -4 -16 -10z"/>
<path d="M5855 6890 c-8 -13 5 -13 25 0 13 8 13 10 -2 10 -9 0 -20 -4 -23 -10z"/>
<path d="M11372 6870 c0 -14 2 -19 5 -12 2 6 2 18 0 25 -3 6 -5 1 -5 -13z"/>
<path d="M5810 6870 c-8 -5 -10 -10 -5 -10 6 0 17 5 25 10 8 5 11 10 5 10 -5
0 -17 -5 -25 -10z"/>
<path d="M5737 6843 c-16 -8 -26 -17 -24 -20 3 -2 22 5 44 16 21 11 31 20 23
19 -8 0 -28 -7 -43 -15z"/>
<path d="M181 6804 c0 -11 3 -14 6 -6 3 7 2 16 -1 19 -3 4 -6 -2 -5 -13z"/>
<path d="M1380 6774 c0 -8 5 -12 10 -9 6 4 8 11 5 16 -9 14 -15 11 -15 -7z"/>
<path d="M182 6740 c0 -14 2 -19 5 -12 2 6 2 18 0 25 -3 6 -5 1 -5 -13z"/>
<path d="M1367 6716 c-5 -15 -6 -31 -3 -34 8 -8 18 25 14 45 -3 13 -6 10 -11
-11z"/>
<path d="M11352 6720 c0 -14 2 -19 5 -12 2 6 2 18 0 25 -3 6 -5 1 -5 -13z"/>
<path d="M6191 6694 c0 -11 3 -14 6 -6 3 7 2 16 -1 19 -3 4 -6 -2 -5 -13z"/>
<path d="M1351 6654 c0 -11 3 -14 6 -6 3 7 2 16 -1 19 -3 4 -6 -2 -5 -13z"/>
<path d="M6201 6644 c0 -11 3 -14 6 -6 3 7 2 16 -1 19 -3 4 -6 -2 -5 -13z"/>
<path d="M1338 6605 c-5 -25 -4 -25 10 -11 12 11 13 19 5 27 -7 7 -12 3 -15
-16z"/>
<path d="M11331 6594 c0 -11 3 -14 6 -6 3 7 2 16 -1 19 -3 4 -6 -2 -5 -13z"/>
<path d="M6211 6584 c0 -11 3 -14 6 -6 3 7 2 16 -1 19 -3 4 -6 -2 -5 -13z"/>
<path d="M1320 6520 c0 -19 3 -21 12 -12 9 9 9 15 0 24 -9 9 -12 7 -12 -12z"/>
<path d="M11310 6481 c0 -25 6 -27 13 -6 4 8 2 17 -3 20 -6 4 -10 -3 -10 -14z"/>
<path d="M6232 6460 c0 -14 2 -19 5 -12 2 6 2 18 0 25 -3 6 -5 1 -5 -13z"/>
<path d="M11296 6415 c-3 -9 -6 -24 -5 -33 0 -9 5 -4 10 12 9 32 6 48 -5 21z"/>
<path d="M6241 6384 c0 -11 3 -14 6 -6 3 7 2 16 -1 19 -3 4 -6 -2 -5 -13z"/>
<path d="M11278 6330 c-11 -38 -10 -56 3 -43 6 6 9 23 7 39 l-3 29 -7 -25z"/>
<path d="M6252 6305 c0 -16 2 -22 5 -12 2 9 2 23 0 30 -3 6 -5 -1 -5 -18z"/>
<path d="M11261 6254 c0 -11 3 -14 6 -6 3 7 2 16 -1 19 -3 4 -6 -2 -5 -13z"/>
<path d="M1260 6230 c0 -19 3 -21 12 -12 9 9 9 15 0 24 -9 9 -12 7 -12 -12z"/>
<path d="M6261 6224 c0 -11 3 -14 6 -6 3 7 2 16 -1 19 -3 4 -6 -2 -5 -13z"/>
<path d="M11242 6183 c-6 -27 -14 -59 -18 -73 l-6 -25 15 26 c8 14 17 39 19
55 3 16 9 37 13 47 4 9 3 17 -2 17 -5 0 -15 -21 -21 -47z"/>
<path d="M6271 6154 c0 -11 3 -14 6 -6 3 7 2 16 -1 19 -3 4 -6 -2 -5 -13z"/>
<path d="M1240 6120 c0 -19 3 -21 12 -12 9 9 9 15 0 24 -9 9 -12 7 -12 -12z"/>
<path d="M7110 6026 c-41 -19 -140 -78 -140 -82 0 -3 31 11 68 31 86 44 143
85 72 51z"/>
<path d="M1220 6005 c1 -26 2 -28 11 -12 8 14 8 22 0 30 -8 8 -11 3 -11 -18z"/>
<path d="M11177 5951 c-4 -17 -3 -21 5 -13 5 5 8 16 6 23 -3 8 -7 3 -11 -10z"/>
<path d="M6935 5930 c-3 -6 1 -7 9 -4 18 7 21 14 7 14 -6 0 -13 -4 -16 -10z"/>
<path d="M6321 5914 c0 -11 3 -14 6 -6 3 7 2 16 -1 19 -3 4 -6 -2 -5 -13z"/>
<path d="M6895 5910 c-3 -6 1 -7 9 -4 18 7 21 14 7 14 -6 0 -13 -4 -16 -10z"/>
<path d="M11161 5903 c-1 -6 -4 -20 -7 -30 -5 -17 -5 -17 6 0 6 10 9 23 6 30
-3 9 -5 9 -5 0z"/>
<path d="M6827 5883 c-16 -8 -26 -17 -24 -20 3 -2 22 5 44 16 21 11 31 20 23
19 -8 0 -28 -7 -43 -15z"/>
<path d="M6741 5844 c-19 -8 -32 -17 -28 -20 3 -3 22 4 44 15 44 23 34 27 -16
5z"/>
<path d="M1191 5814 c0 -11 3 -14 6 -6 3 7 2 16 -1 19 -3 4 -6 -2 -5 -13z"/>
<path d="M6665 5810 c-8 -13 5 -13 25 0 13 8 13 10 -2 10 -9 0 -20 -4 -23 -10z"/>
<path d="M6370 5780 c6 -11 13 -20 16 -20 2 0 0 9 -6 20 -6 11 -13 20 -16 20
-2 0 0 -9 6 -20z"/>
<path d="M6605 5790 c-3 -5 -15 -10 -25 -10 -10 0 -22 -5 -26 -11 -7 -12 19
-6 71 16 26 12 27 13 8 14 -12 1 -25 -3 -28 -9z"/>
<path d="M1188 5764 c-5 -4 -8 -19 -8 -33 1 -23 2 -24 11 -8 11 19 9 53 -3 41z"/>
<path d="M6490 5750 c-13 -9 -13 -10 0 -9 8 0 24 4 35 9 l20 9 -20 0 c-11 0
-27 -4 -35 -9z"/>
<path d="M6398 5738 c6 -6 18 -8 28 -6 14 3 12 5 -9 10 -19 3 -25 2 -19 -4z"/>
<path d="M11081 5669 c-6 -18 -9 -34 -7 -36 2 -2 9 10 15 28 6 18 9 34 7 36
-2 2 -9 -10 -15 -28z"/>
<path d="M1172 5665 c0 -16 2 -22 5 -12 2 9 2 23 0 30 -3 6 -5 -1 -5 -18z"/>
<path d="M11056 5604 c-4 -9 -4 -19 -1 -22 2 -3 7 3 11 12 4 9 4 19 1 22 -2 3
-7 -3 -11 -12z"/>
<path d="M11011 5494 c-12 -27 -11 -28 4 -12 10 9 16 21 13 28 -2 7 -10 -1
-17 -16z"/>
<path d="M1153 5460 c0 -25 2 -35 4 -22 2 12 2 32 0 45 -2 12 -4 2 -4 -23z"/>
<path d="M241 5454 c0 -11 3 -14 6 -6 3 7 2 16 -1 19 -3 4 -6 -2 -5 -13z"/>
<path d="M10976 5415 c-3 -8 -1 -15 4 -15 6 0 10 7 10 15 0 8 -2 15 -4 15 -2
0 -6 -7 -10 -15z"/>
<path d="M10868 5188 c-54 -106 -89 -182 -78 -168 27 35 182 340 178 351 -2 5
-47 -78 -100 -183z"/>
<path d="M1140 5265 c0 -8 5 -15 10 -15 6 0 10 7 10 15 0 8 -4 15 -10 15 -5 0
-10 -7 -10 -15z"/>
<path d="M265 5261 c-3 -5 -1 -12 5 -16 5 -3 10 1 10 9 0 18 -6 21 -15 7z"/>
<path d="M282 5200 c0 -14 2 -19 5 -12 2 6 2 18 0 25 -3 6 -5 1 -5 -13z"/>
<path d="M280 5146 c0 -8 5 -18 10 -21 6 -3 10 3 10 14 0 12 -4 21 -10 21 -5
0 -10 -6 -10 -14z"/>
<path d="M301 5094 c0 -11 3 -14 6 -6 3 7 2 16 -1 19 -3 4 -6 -2 -5 -13z"/>
<path d="M305 5051 c-3 -5 -1 -12 5 -16 5 -3 10 1 10 9 0 18 -6 21 -15 7z"/>
<path d="M1152 5025 c0 -16 2 -22 5 -12 2 9 2 23 0 30 -3 6 -5 -1 -5 -18z"/>
<path d="M321 4989 c0 -13 4 -33 9 -44 7 -14 8 -8 3 20 -7 46 -13 59 -12 24z"/>
<path d="M10728 4929 c-19 -35 -33 -66 -30 -69 2 -3 7 0 9 7 2 6 18 32 34 57
17 25 29 51 27 58 -2 6 -20 -17 -40 -53z"/>
<path d="M3620 4955 c0 -8 2 -15 4 -15 2 0 6 7 10 15 3 8 1 15 -4 15 -6 0 -10
-7 -10 -15z"/>
<path d="M3586 4911 c-10 -11 -16 -25 -14 -32 2 -7 12 0 22 16 21 32 16 43 -8
16z"/>
<path d="M341 4893 c-1 -17 4 -35 9 -38 11 -7 11 9 0 45 -8 24 -8 24 -9 -7z"/>
<path d="M3550 4845 c-7 -9 -10 -18 -7 -21 3 -3 10 4 17 15 13 25 8 27 -10 6z"/>
<path d="M361 4803 c-1 -17 4 -35 9 -38 11 -7 11 9 0 45 -8 24 -8 24 -9 -7z"/>
<path d="M3490 4745 c-7 -9 -10 -18 -7 -21 3 -3 10 4 17 15 13 25 8 27 -10 6z"/>
<path d="M1180 4730 c0 -19 3 -21 12 -12 9 9 9 15 0 24 -9 9 -12 7 -12 -12z"/>
<path d="M380 4700 c0 -5 5 -10 10 -10 6 0 10 5 10 10 0 6 -4 10 -10 10 -5 0
-10 -4 -10 -10z"/>
<path d="M3458 4688 c-17 -27 -29 -58 -23 -58 3 0 14 18 25 40 22 43 21 54 -2
18z"/>
<path d="M1192 4650 c0 -14 2 -19 5 -12 2 6 2 18 0 25 -3 6 -5 1 -5 -13z"/>
<path d="M3396 4574 c-10 -14 -16 -30 -14 -35 2 -6 11 6 21 25 20 42 16 47 -7
10z"/>
<path d="M420 4561 c0 -5 5 -13 10 -16 6 -3 10 -2 10 4 0 5 -4 13 -10 16 -5 3
-10 2 -10 -4z"/>
<path d="M1211 4524 c0 -11 3 -14 6 -6 3 7 2 16 -1 19 -3 4 -6 -2 -5 -13z"/>
<path d="M441 4503 c-1 -12 4 -25 9 -28 12 -7 12 2 0 30 -8 19 -9 19 -9 -2z"/>
<path d="M1222 4480 c0 -14 2 -19 5 -12 2 6 2 18 0 25 -3 6 -5 1 -5 -13z"/>
<path d="M461 4438 c-1 -15 4 -30 9 -33 12 -7 12 12 0 40 -8 18 -9 17 -9 -7z"/>
<path d="M3316 4405 c-9 -26 -7 -32 5 -12 6 10 9 21 6 23 -2 3 -7 -2 -11 -11z"/>
<path d="M481 4373 c-1 -12 4 -25 9 -28 12 -7 12 2 0 30 -8 19 -9 19 -9 -2z"/>
<path d="M3296 4355 c-9 -26 -7 -32 5 -12 6 10 9 21 6 23 -2 3 -7 -2 -11 -11z"/>
<path d="M501 4313 c-1 -12 4 -25 9 -28 12 -7 12 2 0 30 -8 19 -9 19 -9 -2z"/>
<path d="M521 4253 c-1 -12 4 -25 9 -28 12 -7 12 2 0 30 -8 19 -9 19 -9 -2z"/>
<path d="M3253 4235 c-3 -9 -3 -18 -1 -21 3 -3 8 4 11 16 6 23 -1 27 -10 5z"/>
<path d="M541 4193 c-1 -12 4 -25 9 -28 12 -7 12 2 0 30 -8 19 -9 19 -9 -2z"/>
<path d="M1281 4183 c0 -10 4 -27 9 -38 7 -17 9 -15 9 12 1 17 -3 35 -9 38 -5
3 -10 -2 -9 -12z"/>
<path d="M3231 4154 c0 -11 3 -14 6 -6 3 7 2 16 -1 19 -3 4 -6 -2 -5 -13z"/>
<path d="M560 4138 c0 -9 5 -20 10 -23 13 -8 13 5 0 25 -8 13 -10 13 -10 -2z"/>
<path d="M1301 4098 c0 -7 4 -22 9 -33 8 -18 9 -17 9 7 1 15 -3 30 -9 33 -5 3
-10 0 -9 -7z"/>
<path d="M581 4093 c-1 -7 3 -22 8 -35 5 -13 12 -32 15 -42 4 -10 9 -17 12
-14 2 3 -4 27 -15 54 -11 27 -20 44 -20 37z"/>
<path d="M3212 4070 c0 -14 2 -19 5 -12 2 6 2 18 0 25 -3 6 -5 1 -5 -13z"/>
<path d="M1321 4018 c0 -7 4 -22 9 -33 8 -18 9 -17 9 7 1 15 -3 30 -9 33 -5 3
-10 0 -9 -7z"/>
<path d="M620 3973 c0 -13 5 -23 10 -23 13 0 13 11 0 30 -8 12 -10 11 -10 -7z"/>
<path d="M660 3878 c0 -9 5 -20 10 -23 13 -8 13 5 0 25 -8 13 -10 13 -10 -2z"/>
<path d="M1366 3853 c9 -38 14 -42 14 -10 0 14 -5 29 -10 32 -7 4 -8 -3 -4
-22z"/>
<path d="M3211 3804 c0 -11 3 -14 6 -6 3 7 2 16 -1 19 -3 4 -6 -2 -5 -13z"/>
<path d="M700 3778 c0 -9 5 -20 10 -23 13 -8 13 5 0 25 -8 13 -10 13 -10 -2z"/>
<path d="M720 3732 c0 -14 32 -74 36 -69 5 5 -24 77 -31 77 -3 0 -5 -4 -5 -8z"/>
<path d="M1426 3655 c10 -46 26 -67 18 -25 -3 19 -10 40 -16 45 -6 6 -7 -1 -2
-20z"/>
<path d="M3241 3660 c0 -8 4 -24 9 -35 5 -13 9 -14 9 -5 0 8 -4 24 -9 35 -5
13 -9 14 -9 5z"/>
<path d="M760 3635 c0 -8 4 -15 10 -15 5 0 7 7 4 15 -4 8 -8 15 -10 15 -2 0
-4 -7 -4 -15z"/>
<path d="M780 3601 c0 -6 4 -13 10 -16 6 -3 7 1 4 9 -7 18 -14 21 -14 7z"/>
<path d="M800 3561 c0 -6 4 -13 10 -16 6 -3 7 1 4 9 -7 18 -14 21 -14 7z"/>
<path d="M1460 3548 c0 -7 5 -20 10 -28 8 -12 10 -11 10 7 0 12 -4 25 -10 28
-5 3 -10 0 -10 -7z"/>
<path d="M3281 3540 c0 -8 4 -22 9 -30 12 -18 12 -2 0 25 -6 13 -9 15 -9 5z"/>
<path d="M1481 3493 c0 -4 4 -17 9 -28 8 -19 9 -19 9 2 1 12 -3 25 -9 28 -5 3
-10 3 -9 -2z"/>
<path d="M840 3473 c0 -13 36 -81 51 -97 16 -17 10 0 -21 55 -16 30 -30 49
-30 42z"/>
<path d="M3310 3465 c0 -5 5 -17 10 -25 5 -8 10 -10 10 -5 0 6 -5 17 -10 25
-5 8 -10 11 -10 5z"/>
<path d="M1500 3433 c0 -4 5 -15 10 -23 8 -13 10 -13 10 2 0 9 -4 20 -10 23
-5 3 -10 3 -10 -2z"/>
<path d="M3343 3383 c2 -5 17 -34 32 -66 15 -31 32 -60 37 -63 5 -3 -7 26 -27
65 -19 39 -38 71 -41 71 -3 0 -3 -3 -1 -7z"/>
<path d="M900 3351 c0 -5 5 -13 10 -16 6 -3 10 -2 10 4 0 5 -4 13 -10 16 -5 3
-10 2 -10 -4z"/>
<path d="M1540 3323 c0 -4 5 -15 10 -23 8 -13 10 -13 10 2 0 9 -4 20 -10 23
-5 3 -10 3 -10 -2z"/>
<path d="M920 3314 c0 -15 33 -74 41 -74 5 0 0 18 -11 40 -19 37 -30 49 -30
34z"/>
<path d="M1565 3260 c12 -40 26 -59 19 -25 -4 17 -11 35 -16 40 -7 7 -8 1 -3
-15z"/>
<path d="M3420 3237 c0 -14 65 -128 108 -189 17 -26 32 -51 32 -57 0 -6 4 -11
9 -11 5 0 14 -13 21 -30 7 -16 16 -30 21 -30 14 0 12 5 -52 102 -33 51 -76
121 -96 155 -30 54 -43 72 -43 60z"/>
<path d="M980 3206 c0 -8 62 -119 82 -148 10 -14 18 -31 18 -37 0 -6 5 -11 11
-11 6 0 1 17 -11 38 -13 20 -38 65 -57 100 -31 55 -43 71 -43 58z"/>
<path d="M1591 3195 c0 -15 47 -112 48 -99 1 5 -10 32 -23 60 -14 27 -25 45
-25 39z"/>
<path d="M8907 3058 c-26 -17 -46 -32 -43 -35 5 -6 93 45 102 58 9 16 -10 8
-59 -23z"/>
<path d="M1661 3025 c19 -51 45 -105 51 -105 8 0 -35 96 -47 108 -4 4 -6 2 -4
-3z"/>
<path d="M1100 2993 c0 -6 9 -22 20 -36 11 -14 20 -29 20 -34 0 -4 14 -24 31
-43 35 -40 30 -29 -23 54 -44 68 -48 73 -48 59z"/>
<path d="M1750 2824 c0 -6 7 -19 15 -30 8 -10 14 -14 14 -9 0 6 -6 19 -14 29
-8 11 -15 15 -15 10z"/>
<path d="M1780 2760 c0 -5 5 -10 11 -10 5 0 7 5 4 10 -3 6 -8 10 -11 10 -2 0
-4 -4 -4 -10z"/>
<path d="M8330 2740 c-19 -11 -30 -19 -24 -20 12 0 74 29 74 36 0 8 -15 3 -50
-16z"/>
<path d="M1800 2721 c0 -5 5 -13 10 -16 6 -3 10 -2 10 4 0 5 -4 13 -10 16 -5
3 -10 2 -10 -4z"/>
<path d="M8265 2710 c-3 -5 1 -10 9 -10 9 0 16 5 16 10 0 6 -4 10 -9 10 -6 0
-13 -4 -16 -10z"/>
<path d="M8200 2680 c-19 -11 -32 -19 -29 -20 11 0 79 30 79 35 0 9 -14 5 -50
-15z"/>
<path d="M1820 2681 c0 -5 5 -13 10 -16 6 -3 10 -2 10 4 0 5 -4 13 -10 16 -5
3 -10 2 -10 -4z"/>
<path d="M8130 2650 c-13 -8 -13 -10 2 -10 9 0 20 5 23 10 8 13 -5 13 -25 0z"/>
<path d="M1841 2645 c13 -33 71 -136 75 -132 5 5 -52 117 -68 132 -7 7 -9 7
-7 0z"/>
<path d="M8080 2630 c-8 -5 -10 -10 -5 -10 6 0 17 5 25 10 8 5 11 10 5 10 -5
0 -17 -5 -25 -10z"/>
<path d="M8030 2610 c-13 -8 -13 -10 2 -10 9 0 20 5 23 10 8 13 -5 13 -25 0z"/>
<path d="M7980 2590 c-13 -8 -13 -10 2 -10 9 0 20 5 23 10 8 13 -5 13 -25 0z"/>
<path d="M7930 2570 c-8 -5 -10 -10 -5 -10 6 0 17 5 25 10 8 5 11 10 5 10 -5
0 -17 -5 -25 -10z"/>
<path d="M7870 2550 c-13 -8 -13 -10 2 -10 9 0 20 5 23 10 8 13 -5 13 -25 0z"/>
<path d="M7815 2530 c-19 -8 -19 -9 2 -9 12 -1 25 4 28 9 7 12 -2 12 -30 0z"/>
<path d="M1920 2498 c0 -13 72 -130 77 -124 3 3 -6 24 -20 48 -30 51 -56 86
-57 76z"/>
<path d="M7696 2491 c-4 -5 3 -7 14 -4 23 6 26 13 6 13 -8 0 -17 -4 -20 -9z"/>
<path d="M7555 2450 c-18 -8 -17 -9 7 -9 15 -1 30 4 33 9 7 12 -12 12 -40 0z"/>
<path d="M7490 2430 c-12 -8 -11 -10 8 -10 12 0 22 5 22 10 0 13 -11 13 -30 0z"/>
<path d="M7405 2410 c-18 -8 -17 -9 7 -9 15 -1 30 4 33 9 7 12 -12 12 -40 0z"/>
<path d="M7348 2393 c7 -3 16 -2 19 1 4 3 -2 6 -13 5 -11 0 -14 -3 -6 -6z"/>
<path d="M7308 2383 c7 -3 16 -2 19 1 4 3 -2 6 -13 5 -11 0 -14 -3 -6 -6z"/>
<path d="M2002 2355 c23 -45 92 -155 95 -151 6 6 -24 63 -55 106 -29 39 -48
61 -40 45z"/>
<path d="M7108 2343 c6 -2 18 -2 25 0 6 3 1 5 -13 5 -14 0 -19 -2 -12 -5z"/>
<path d="M7050 2330 c0 -5 6 -10 14 -10 8 0 18 5 21 10 3 6 -3 10 -14 10 -12
0 -21 -4 -21 -10z"/>
<path d="M6798 2288 c9 -9 15 -9 24 0 9 9 7 12 -12 12 -19 0 -21 -3 -12 -12z"/>
<path d="M6718 2283 c6 -2 18 -2 25 0 6 3 1 5 -13 5 -14 0 -19 -2 -12 -5z"/>
<path d="M6640 2270 c0 -5 6 -10 14 -10 8 0 18 5 21 10 3 6 -3 10 -14 10 -12
0 -21 -4 -21 -10z"/>
<path d="M6490 2250 c0 -5 6 -10 14 -10 8 0 18 5 21 10 3 6 -3 10 -14 10 -12
0 -21 -4 -21 -10z"/>
<path d="M2122 2149 c14 -24 31 -55 37 -67 7 -13 15 -21 18 -18 6 6 -54 113
-70 123 -6 4 0 -13 15 -38z"/>
<path d="M6402 2100 c0 -19 2 -27 5 -17 2 9 2 25 0 35 -3 9 -5 1 -5 -18z"/>
<path d="M2180 2047 c0 -9 70 -130 70 -122 1 15 -54 124 -62 125 -5 0 -8 -1
-8 -3z"/>
<path d="M6393 1970 c0 -25 2 -35 4 -22 2 12 2 32 0 45 -2 12 -4 2 -4 -23z"/>
<path d="M2281 1843 c0 -4 4 -17 9 -28 8 -19 9 -19 9 2 1 12 -3 25 -9 28 -5 3
-10 3 -9 -2z"/>
<path d="M6383 1805 c0 -22 2 -30 4 -17 2 12 2 30 0 40 -3 9 -5 -1 -4 -23z"/>
<path d="M6373 1670 c0 -25 2 -35 4 -22 2 12 2 32 0 45 -2 12 -4 2 -4 -23z"/>
<path d="M6353 1415 c0 -22 2 -30 4 -17 2 12 2 30 0 40 -3 9 -5 -1 -4 -23z"/>
<path d="M5324 1322 c11 -12 23 -22 28 -22 5 0 27 -12 51 -27 63 -41 109 -65
114 -60 2 3 -27 23 -64 44 -37 22 -86 50 -108 63 -39 23 -40 24 -21 2z"/>
<path d="M6321 1194 c0 -11 3 -14 6 -6 3 7 2 16 -1 19 -3 4 -6 -2 -5 -13z"/>
<path d="M5542 1195 c12 -12 300 -155 311 -154 7 0 -58 36 -143 79 -139 71
-184 91 -168 75z"/>
<path d="M6311 1154 c0 -11 3 -14 6 -6 3 7 2 16 -1 19 -3 4 -6 -2 -5 -13z"/>
<path d="M5870 1030 c0 -6 7 -10 15 -10 8 0 15 2 15 4 0 2 -7 6 -15 10 -8 3
-15 1 -15 -4z"/>
<path d="M5915 1010 c3 -5 14 -10 23 -10 15 0 15 2 2 10 -20 13 -33 13 -25 0z"/>
<path d="M6868 12743 c7 -3 16 -2 19 1 4 3 -2 6 -13 5 -11 0 -14 -3 -6 -6z"/>
<path d="M7188 12703 c7 -3 16 -2 19 1 4 3 -2 6 -13 5 -11 0 -14 -3 -6 -6z"/>
<path d="M5318 12688 c9 -9 15 -9 24 0 9 9 7 12 -12 12 -19 0 -21 -3 -12 -12z"/>
<path d="M5208 12668 c9 -9 15 -9 24 0 9 9 7 12 -12 12 -19 0 -21 -3 -12 -12z"/>
<path d="M7370 12670 c20 -13 43 -13 35 0 -3 6 -16 10 -28 10 -18 0 -19 -2 -7
-10z"/>
<path d="M5148 12663 c7 -3 16 -2 19 1 4 3 -2 6 -13 5 -11 0 -14 -3 -6 -6z"/>
<path d="M7428 12663 c6 -2 18 -2 25 0 6 3 1 5 -13 5 -14 0 -19 -2 -12 -5z"/>
<path d="M5060 12650 c-22 -7 -21 -8 12 -9 20 -1 40 4 43 9 7 12 -19 12 -55 0z"/>
<path d="M7478 12648 c9 -9 15 -9 24 0 9 9 7 12 -12 12 -19 0 -21 -3 -12 -12z"/>
<path d="M7538 12643 c7 -3 16 -2 19 1 4 3 -2 6 -13 5 -11 0 -14 -3 -6 -6z"/>
<path d="M4975 12630 c-17 -7 -15 -9 12 -9 17 -1 35 4 38 9 7 12 -22 12 -50 0z"/>
<path d="M7575 12630 c3 -5 23 -10 43 -9 33 1 34 2 12 9 -36 12 -62 12 -55 0z"/>
<path d="M7665 12610 c4 -6 11 -8 16 -5 14 9 11 15 -7 15 -8 0 -12 -5 -9 -10z"/>
<path d="M4828 12593 c7 -3 16 -2 19 1 4 3 -2 6 -13 5 -11 0 -14 -3 -6 -6z"/>
<path d="M7745 12590 c3 -5 13 -10 21 -10 8 0 12 5 9 10 -3 6 -13 10 -21 10
-8 0 -12 -4 -9 -10z"/>
<path d="M7830 12570 c8 -5 24 -9 35 -9 l20 0 -20 9 c-11 5 -27 9 -35 9 -13 1
-13 0 0 -9z"/>
<path d="M4655 12550 c-18 -8 -17 -9 7 -9 15 -1 30 4 33 9 7 12 -12 12 -40 0z"/>
<path d="M7905 12550 c3 -5 16 -10 28 -9 21 0 21 1 2 9 -28 12 -37 12 -30 0z"/>
<path d="M4575 12530 c-18 -8 -17 -9 7 -9 15 -1 30 4 33 9 7 12 -12 12 -40 0z"/>
<path d="M7975 12530 c3 -5 18 -10 32 -10 32 0 28 5 -10 14 -19 4 -26 3 -22
-4z"/>
<path d="M4528 12513 c7 -3 16 -2 19 1 4 3 -2 6 -13 5 -11 0 -14 -3 -6 -6z"/>
<path d="M8045 12510 c3 -5 16 -10 28 -9 21 0 21 1 2 9 -28 12 -37 12 -30 0z"/>
<path d="M4445 12490 c-19 -8 -19 -9 2 -9 12 -1 25 4 28 9 7 12 -2 12 -30 0z"/>
<path d="M8105 12490 c3 -5 13 -10 21 -10 8 0 12 5 9 10 -3 6 -13 10 -21 10
-8 0 -12 -4 -9 -10z"/>
<path d="M4385 12470 c-13 -6 -15 -9 -5 -9 8 0 22 4 30 9 18 12 2 12 -25 0z"/>
<path d="M8230 12450 c8 -5 22 -10 30 -10 13 0 13 1 0 10 -8 5 -22 10 -30 10
-13 0 -13 -1 0 -10z"/>
<path d="M4243 12427 c-38 -14 -52 -27 -30 -27 9 0 19 5 22 10 3 6 17 10 31
10 13 0 24 5 24 10 0 12 -6 12 -47 -3z"/>
<path d="M8350 12410 c8 -5 20 -10 25 -10 6 0 3 5 -5 10 -8 5 -19 10 -25 10
-5 0 -3 -5 5 -10z"/>
<path d="M4145 12390 c-19 -8 -19 -9 2 -9 12 -1 25 4 28 9 7 12 -2 12 -30 0z"/>
<path d="M8435 12376 c11 -8 29 -15 40 -15 16 0 17 1 5 8 -8 5 -26 12 -40 16
-24 7 -24 7 -5 -9z"/>
<path d="M4068 12363 c-10 -2 -18 -9 -18 -14 0 -6 10 -5 23 2 37 20 36 23 -5
12z"/>
<path d="M8505 12350 c3 -5 14 -10 23 -10 15 0 15 2 2 10 -20 13 -33 13 -25 0z"/>
<path d="M3995 12330 c-3 -6 1 -7 9 -4 18 7 21 14 7 14 -6 0 -13 -4 -16 -10z"/>
<path d="M8555 12330 c3 -5 11 -10 16 -10 6 0 7 5 4 10 -3 6 -11 10 -16 10 -6
0 -7 -4 -4 -10z"/>
<path d="M3910 12303 c-21 -9 -29 -18 -22 -20 8 -3 19 0 25 6 6 6 19 11 29 11
10 0 18 5 18 10 0 13 -7 12 -50 -7z"/>
<path d="M8650 12290 c0 -5 7 -10 16 -10 8 0 12 5 9 10 -3 6 -10 10 -16 10 -5
0 -9 -4 -9 -10z"/>
<path d="M3840 12270 c-8 -5 -10 -10 -5 -10 6 0 17 5 25 10 8 5 11 10 5 10 -5
0 -17 -5 -25 -10z"/>
<path d="M8695 12270 c3 -5 14 -10 23 -10 15 0 15 2 2 10 -20 13 -33 13 -25 0z"/>
<path d="M3790 12250 c-13 -8 -13 -10 2 -10 9 0 20 5 23 10 8 13 -5 13 -25 0z"/>
<path d="M8745 12250 c3 -5 11 -10 16 -10 6 0 7 5 4 10 -3 6 -11 10 -16 10 -6
0 -7 -4 -4 -10z"/>
<path d="M3745 12230 c-3 -5 -2 -10 4 -10 5 0 13 5 16 10 3 6 2 10 -4 10 -5 0
-13 -4 -16 -10z"/>
<path d="M8785 12230 c3 -5 14 -10 23 -10 15 0 15 2 2 10 -20 13 -33 13 -25 0z"/>
<path d="M3700 12210 c-13 -8 -13 -10 2 -10 9 0 20 5 23 10 8 13 -5 13 -25 0z"/>
<path d="M8835 12210 c3 -5 11 -10 16 -10 6 0 7 5 4 10 -3 6 -11 10 -16 10 -6
0 -7 -4 -4 -10z"/>
<path d="M3660 12190 c-13 -8 -12 -10 3 -10 9 0 17 5 17 10 0 12 -1 12 -20 0z"/>
<path d="M3615 12170 c-3 -5 -2 -10 4 -10 5 0 13 5 16 10 3 6 2 10 -4 10 -5 0
-13 -4 -16 -10z"/>
<path d="M3520 12124 c-36 -18 -60 -33 -53 -34 6 0 35 12 65 26 59 30 63 32
57 38 -2 2 -33 -11 -69 -30z"/>
<path d="M3415 12071 c-6 -5 -42 -25 -80 -45 -39 -20 -80 -43 -90 -51 -18 -14
-18 -14 10 -3 17 7 50 25 74 40 25 16 50 28 55 28 15 1 64 39 51 40 -6 0 -15
-4 -20 -9z"/>
<path d="M3187 11944 c-16 -9 -27 -18 -24 -20 7 -7 57 18 57 28 0 10 1 10 -33
-8z"/>
<path d="M3102 11893 c-47 -28 -51 -43 -5 -19 25 12 63 47 52 46 -2 -1 -23
-12 -47 -27z"/>
<path d="M11490 9891 c0 -19 60 -111 72 -111 6 0 2 12 -7 28 -49 75 -65 95
-65 83z"/>
<path d="M11570 9767 c0 -8 51 -87 57 -87 5 0 -22 51 -41 75 -8 11 -16 17 -16
12z"/>
<path d="M902 9673 c-31 -50 -100 -169 -122 -213 -12 -23 -12 -24 3 -11 10 7
17 17 17 22 0 5 12 28 27 52 29 44 31 49 82 140 39 69 35 75 -7 10z"/>
<path d="M11640 9650 c6 -11 13 -20 16 -20 2 0 0 9 -6 20 -6 11 -13 20 -16 20
-2 0 0 -9 6 -20z"/>
<path d="M11660 9611 c0 -5 7 -15 17 -22 15 -13 15 -12 4 9 -12 23 -21 28 -21
13z"/>
<path d="M11709 9533 c12 -23 26 -45 32 -48 13 -8 -12 41 -36 70 -11 14 -10 7
4 -22z"/>
<path d="M11750 9468 c0 -3 20 -43 45 -89 25 -46 73 -139 107 -206 34 -68 63
-121 66 -118 2 2 -42 93 -98 202 -91 178 -120 229 -120 211z"/>
<path d="M726 9361 c-15 -28 -24 -51 -22 -51 9 0 59 91 53 96 -3 3 -17 -17
-31 -45z"/>
<path d="M686 9283 c-6 -14 -5 -15 5 -6 7 7 10 15 7 18 -3 3 -9 -2 -12 -12z"/>
<path d="M658 9227 c-35 -68 -38 -77 -31 -77 9 0 57 99 51 105 -2 2 -11 -10
-20 -28z"/>
<path d="M586 9084 c-15 -31 -25 -58 -23 -61 2 -2 17 22 32 52 15 31 25 58 23
60 -2 3 -16 -21 -32 -51z"/>
<path d="M11970 9034 c0 -11 53 -114 57 -110 5 4 -46 116 -52 116 -3 0 -5 -3
-5 -6z"/>
<path d="M536 8974 c-9 -20 -15 -39 -12 -41 3 -3 12 12 21 32 20 49 14 56 -9
9z"/>
<path d="M506 8904 c-4 -9 -4 -19 -1 -22 2 -3 7 3 11 12 4 9 4 19 1 22 -2 3
-7 -3 -11 -12z"/>
<path d="M12030 8901 c0 -5 5 -13 10 -16 6 -3 10 -2 10 4 0 5 -4 13 -10 16 -5
3 -10 2 -10 -4z"/>
<path d="M12050 8865 c0 -5 5 -17 10 -25 5 -8 10 -10 10 -5 0 6 -5 17 -10 25
-5 8 -10 11 -10 5z"/>
<path d="M471 8824 c-6 -15 -9 -29 -7 -32 3 -2 10 8 16 23 14 36 7 43 -9 9z"/>
<path d="M12070 8808 c0 -9 5 -20 10 -23 13 -8 13 5 0 25 -8 13 -10 13 -10 -2z"/>
<path d="M446 8764 c-4 -9 -4 -19 -1 -22 2 -3 7 3 11 12 4 9 4 19 1 22 -2 3
-7 -3 -11 -12z"/>
<path d="M12090 8765 c0 -5 5 -17 10 -25 5 -8 10 -10 10 -5 0 6 -5 17 -10 25
-5 8 -10 11 -10 5z"/>
<path d="M426 8714 c-4 -9 -4 -19 -1 -22 2 -3 7 3 11 12 4 9 4 19 1 22 -2 3
-7 -3 -11 -12z"/>
<path d="M12110 8712 c0 -5 9 -26 20 -48 19 -37 19 -19 -1 34 -8 22 -19 30
-19 14z"/>
<path d="M391 8619 c-13 -39 -14 -46 -2 -33 9 10 24 64 17 64 -2 0 -9 -14 -15
-31z"/>
<path d="M357 8526 c-9 -27 -15 -52 -12 -54 2 -3 7 4 11 14 3 10 10 29 16 41
6 11 8 27 6 34 -3 8 -12 -8 -21 -35z"/>
<path d="M12171 8553 c-1 -12 4 -25 9 -28 6 -3 10 -15 10 -25 0 -10 5 -22 11
-26 12 -7 6 19 -16 71 -12 26 -13 27 -14 8z"/>
<path d="M12210 8443 c0 -12 5 -25 10 -28 13 -8 13 15 0 35 -8 12 -10 11 -10
-7z"/>
<path d="M12231 8383 c-1 -12 4 -25 9 -28 12 -7 12 2 0 30 -8 19 -9 19 -9 -2z"/>
<path d="M300 8360 c0 -5 5 -10 10 -10 6 0 10 5 10 10 0 6 -4 10 -10 10 -5 0
-10 -4 -10 -10z"/>
<path d="M12251 8323 c-1 -12 4 -25 9 -28 12 -7 12 2 0 30 -8 19 -9 19 -9 -2z"/>
<path d="M287 8308 c-4 -14 -10 -34 -13 -45 -5 -13 -2 -12 10 5 10 12 16 32
14 45 -3 21 -4 20 -11 -5z"/>
<path d="M261 8224 c0 -11 3 -14 6 -6 3 7 2 16 -1 19 -3 4 -6 -2 -5 -13z"/>
<path d="M12291 8193 c-1 -12 4 -25 9 -28 12 -7 12 2 0 30 -8 19 -9 19 -9 -2z"/>
<path d="M247 8174 c-4 -4 -7 -14 -7 -23 0 -11 3 -12 11 -4 6 6 10 16 7 23 -2
6 -7 8 -11 4z"/>
<path d="M12320 8091 c5 -11 10 -31 10 -45 0 -14 5 -28 10 -31 13 -8 13 -4 -1
51 -6 24 -15 44 -21 44 -5 0 -4 -8 2 -19z"/>
<path d="M220 8074 c0 -8 5 -12 10 -9 6 3 10 10 10 16 0 5 -4 9 -10 9 -5 0
-10 -7 -10 -16z"/>
<path d="M211 8034 c0 -11 3 -14 6 -6 3 7 2 16 -1 19 -3 4 -6 -2 -5 -13z"/>
<path d="M200 7994 c0 -8 5 -12 10 -9 6 3 10 10 10 16 0 5 -4 9 -10 9 -5 0
-10 -7 -10 -16z"/>
<path d="M12361 7944 c0 -11 3 -14 6 -6 3 7 2 16 -1 19 -3 4 -6 -2 -5 -13z"/>
<path d="M180 7911 c0 -25 6 -27 13 -6 4 8 2 17 -3 20 -6 4 -10 -3 -10 -14z"/>
<path d="M12381 7864 c0 -11 3 -14 6 -6 3 7 2 16 -1 19 -3 4 -6 -2 -5 -13z"/>
<path d="M12390 7783 c0 -5 5 -15 10 -23 8 -12 10 -11 10 8 0 12 -4 22 -10 22
-5 0 -10 -3 -10 -7z"/>
<path d="M140 7720 c0 -19 3 -21 12 -12 9 9 9 15 0 24 -9 9 -12 7 -12 -12z"/>
<path d="M131 7674 c0 -11 3 -14 6 -6 3 7 2 16 -1 19 -3 4 -6 -2 -5 -13z"/>
<path d="M12431 7634 c0 -11 3 -14 6 -6 3 7 2 16 -1 19 -3 4 -6 -2 -5 -13z"/>
<path d="M120 7599 c0 -11 5 -17 10 -14 6 3 10 13 10 21 0 8 -4 14 -10 14 -5
0 -10 -9 -10 -21z"/>
<path d="M92 7430 c0 -14 2 -19 5 -12 2 6 2 18 0 25 -3 6 -5 1 -5 -13z"/>
<path d="M12491 7254 c0 -11 3 -14 6 -6 3 7 2 16 -1 19 -3 4 -6 -2 -5 -13z"/>
<path d="M12495 7169 c-4 -12 -2 -26 4 -32 8 -8 11 -2 11 21 0 37 -6 41 -15
11z"/>
<path d="M12512 7055 c0 -16 2 -22 5 -12 2 9 2 23 0 30 -3 6 -5 -1 -5 -18z"/>
<path d="M12533 6805 c0 -33 2 -45 4 -27 2 18 2 45 0 60 -2 15 -4 0 -4 -33z"/>
<path d="M33 6780 c0 -36 2 -50 4 -32 2 17 2 47 0 65 -2 17 -4 3 -4 -33z"/>
<path d="M12531 6274 c0 -11 3 -14 6 -6 3 7 2 16 -1 19 -3 4 -6 -2 -5 -13z"/>
<path d="M12532 6100 c0 -19 2 -27 5 -17 2 9 2 25 0 35 -3 9 -5 1 -5 -18z"/>
<path d="M33 6050 c0 -30 2 -43 4 -27 2 15 2 39 0 55 -2 15 -4 2 -4 -28z"/>
<path d="M12512 5800 c0 -14 2 -19 5 -12 2 6 2 18 0 25 -3 6 -5 1 -5 -13z"/>
<path d="M71 5564 c0 -11 3 -14 6 -6 3 7 2 16 -1 19 -3 4 -6 -2 -5 -13z"/>
<path d="M12491 5564 c0 -11 3 -14 6 -6 3 7 2 16 -1 19 -3 4 -6 -2 -5 -13z"/>
<path d="M91 5414 c0 -11 3 -14 6 -6 3 7 2 16 -1 19 -3 4 -6 -2 -5 -13z"/>
<path d="M12471 5394 c0 -11 3 -14 6 -6 3 7 2 16 -1 19 -3 4 -6 -2 -5 -13z"/>
<path d="M111 5284 c0 -11 3 -14 6 -6 3 7 2 16 -1 19 -3 4 -6 -2 -5 -13z"/>
<path d="M132 5170 c0 -14 2 -19 5 -12 2 6 2 18 0 25 -3 6 -5 1 -5 -13z"/>
<path d="M12434 5179 c-3 -6 -1 -16 5 -22 8 -8 11 -5 11 11 0 24 -5 28 -16 11z"/>
<path d="M141 5114 c0 -11 3 -14 6 -6 3 7 2 16 -1 19 -3 4 -6 -2 -5 -13z"/>
<path d="M160 5020 c0 -5 5 -10 11 -10 5 0 7 5 4 10 -3 6 -8 10 -11 10 -2 0
-4 -4 -4 -10z"/>
<path d="M171 4964 c0 -11 3 -14 6 -6 3 7 2 16 -1 19 -3 4 -6 -2 -5 -13z"/>
<path d="M12396 4951 c-4 -7 -5 -15 -2 -18 9 -9 19 4 14 18 -4 11 -6 11 -12 0z"/>
<path d="M181 4923 c1 -10 5 -29 9 -43 7 -22 8 -21 9 12 1 20 -3 40 -9 43 -5
3 -10 -2 -9 -12z"/>
<path d="M12391 4894 c0 -11 3 -14 6 -6 3 7 2 16 -1 19 -3 4 -6 -2 -5 -13z"/>
<path d="M12375 4857 c-4 -10 -5 -21 -1 -24 10 -10 18 4 13 24 -4 17 -4 17
-12 0z"/>
<path d="M200 4834 c0 -8 5 -12 10 -9 6 4 8 11 5 16 -9 14 -15 11 -15 -7z"/>
<path d="M211 4794 c0 -11 3 -14 6 -6 3 7 2 16 -1 19 -3 4 -6 -2 -5 -13z"/>
<path d="M12356 4771 c-4 -7 -5 -15 -2 -18 9 -9 19 4 14 18 -4 11 -6 11 -12 0z"/>
<path d="M221 4754 c0 -11 3 -14 6 -6 3 7 2 16 -1 19 -3 4 -6 -2 -5 -13z"/>
<path d="M12331 4658 c0 -28 2 -30 9 -13 12 28 12 45 0 45 -5 0 -10 -15 -9
-32z"/>
<path d="M260 4608 c0 -7 5 -20 10 -28 8 -12 10 -11 10 7 0 12 -4 25 -10 28
-5 3 -10 0 -10 -7z"/>
<path d="M12317 4614 c-4 -4 -7 -19 -6 -33 l0 -26 10 24 c10 26 8 47 -4 35z"/>
<path d="M281 4534 c0 -11 3 -14 6 -6 3 7 2 16 -1 19 -3 4 -6 -2 -5 -13z"/>
<path d="M12287 4499 c-10 -28 -16 -53 -13 -56 6 -7 20 28 31 75 10 47 2 39
-18 -19z"/>
<path d="M301 4468 c0 -7 4 -22 9 -33 8 -18 9 -17 9 7 1 15 -3 30 -9 33 -5 3
-10 0 -9 -7z"/>
<path d="M12255 4400 c-3 -5 -1 -10 4 -10 6 0 11 5 11 10 0 6 -2 10 -4 10 -3
0 -8 -4 -11 -10z"/>
<path d="M12237 4343 c-4 -3 -7 -16 -6 -27 0 -19 1 -19 10 3 10 24 8 36 -4 24z"/>
<path d="M361 4283 c0 -4 4 -17 9 -28 8 -19 9 -19 9 2 1 12 -3 25 -9 28 -5 3
-10 3 -9 -2z"/>
<path d="M12201 4234 c-6 -15 -9 -29 -7 -32 3 -2 10 8 16 23 14 36 7 43 -9 9z"/>
<path d="M381 4223 c0 -4 4 -17 9 -28 8 -19 9 -19 9 2 1 12 -3 25 -9 28 -5 3
-10 3 -9 -2z"/>
<path d="M12177 4173 c-4 -3 -7 -13 -7 -22 1 -13 3 -13 11 2 11 19 8 33 -4 20z"/>
<path d="M400 4160 c0 -5 5 -10 11 -10 5 0 7 5 4 10 -3 6 -8 10 -11 10 -2 0
-4 -4 -4 -10z"/>
<path d="M426 4097 c3 -10 9 -15 12 -12 3 3 0 11 -7 18 -10 9 -11 8 -5 -6z"/>
<path d="M12136 4053 c-6 -14 -5 -15 5 -6 7 7 10 15 7 18 -3 3 -9 -2 -12 -12z"/>
<path d="M12116 4003 c-6 -14 -5 -15 5 -6 7 7 10 15 7 18 -3 3 -9 -2 -12 -12z"/>
<path d="M471 3975 c0 -5 6 -21 14 -35 8 -14 14 -20 14 -15 0 6 -6 21 -14 35
-8 14 -14 21 -14 15z"/>
<path d="M12095 3949 c-4 -6 -5 -12 -2 -15 2 -3 7 2 10 11 7 17 1 20 -8 4z"/>
<path d="M12065 3885 c-10 -20 -16 -38 -12 -41 3 -3 13 11 22 31 20 49 15 54
-10 10z"/>
<path d="M500 3903 c0 -4 5 -15 10 -23 8 -13 10 -13 10 2 0 9 -4 20 -10 23 -5
3 -10 3 -10 -2z"/>
<path d="M520 3853 c0 -4 5 -15 10 -23 8 -13 10 -13 10 2 0 9 -4 20 -10 23 -5
3 -10 3 -10 -2z"/>
<path d="M12037 3823 c-4 -3 -7 -13 -7 -22 1 -13 3 -13 11 2 11 19 8 33 -4 20z"/>
<path d="M540 3805 c1 -6 7 -21 16 -35 l15 -25 -7 25 c-7 26 -24 52 -24 35z"/>
<path d="M12006 3749 c-23 -47 -19 -61 5 -16 11 22 18 41 16 44 -3 2 -12 -10
-21 -28z"/>
<path d="M580 3713 c1 -5 9 -24 20 -43 23 -42 27 -26 4 18 -15 31 -24 40 -24
25z"/>
<path d="M11975 3679 c-4 -6 -5 -12 -2 -15 2 -3 7 2 10 11 7 17 1 20 -8 4z"/>
<path d="M11946 3619 c-23 -47 -19 -61 5 -16 11 22 18 41 16 44 -3 2 -12 -10
-21 -28z"/>
<path d="M620 3621 c0 -5 5 -13 10 -16 6 -3 10 -2 10 4 0 5 -4 13 -10 16 -5 3
-10 2 -10 -4z"/>
<path d="M11910 3545 c0 -8 -9 -30 -20 -50 -11 -20 -20 -41 -20 -48 1 -12 59
91 60 106 0 4 -4 7 -10 7 -5 0 -10 -7 -10 -15z"/>
<path d="M666 3527 c3 -10 9 -15 12 -12 3 3 0 11 -7 18 -10 9 -11 8 -5 -6z"/>
<path d="M686 3487 c3 -10 9 -15 12 -12 3 3 0 11 -7 18 -10 9 -11 8 -5 -6z"/>
<path d="M706 3447 c3 -10 9 -15 12 -12 3 3 0 11 -7 18 -10 9 -11 8 -5 -6z"/>
<path d="M11821 3359 c-18 -38 -32 -72 -29 -74 2 -2 21 29 41 70 20 41 33 75
29 75 -4 0 -22 -32 -41 -71z"/>
<path d="M784 3295 c50 -98 108 -201 120 -212 11 -11 -5 28 -26 62 -9 17 -26
46 -36 65 -52 97 -86 156 -94 165 -6 6 11 -30 36 -80z"/>
<path d="M11775 3259 c-4 -6 -5 -12 -2 -15 2 -3 7 2 10 11 7 17 1 20 -8 4z"/>
<path d="M11755 3219 c-4 -6 -5 -12 -2 -15 2 -3 7 2 10 11 7 17 1 20 -8 4z"/>
<path d="M11721 3164 c-17 -38 -6 -42 14 -5 8 17 12 31 7 31 -5 0 -14 -12 -21
-26z"/>
<path d="M11676 3077 c-37 -61 -46 -80 -42 -84 5 -5 66 97 66 110 0 12 -4 8
-24 -26z"/>
<path d="M2746 1111 c15 -13 186 -126 214 -141 l25 -13 -19 22 c-11 11 -23 21
-28 21 -4 0 -49 27 -99 60 -82 54 -119 75 -93 51z"/>
<path d="M3005 944 c11 -9 34 -23 50 -31 28 -15 29 -15 16 0 -12 16 -67 47
-80 47 -3 0 3 -8 14 -16z"/>
<path d="M3090 896 c0 -13 478 -261 487 -253 2 3 -51 32 -119 66 -68 34 -152
77 -188 97 -76 42 -173 94 -177 94 -2 0 -3 -2 -3 -4z"/>
<path d="M9372 836 c-52 -37 -51 -40 6 -11 28 15 52 29 52 31 0 11 -28 1 -58
-20z"/>
<path d="M9215 757 c-93 -48 -90 -46 -84 -52 3 -2 47 18 99 45 52 27 88 49 80
49 -8 -1 -51 -19 -95 -42z"/>
<path d="M9067 683 c-16 -8 -26 -17 -24 -20 3 -2 22 5 44 16 21 11 31 20 23
19 -8 0 -28 -7 -43 -15z"/>
<path d="M9000 650 c0 -5 4 -10 9 -10 6 0 13 5 16 10 3 6 -1 10 -9 10 -9 0
-16 -4 -16 -10z"/>
<path d="M3590 636 c0 -2 7 -6 15 -10 8 -3 15 -1 15 4 0 6 -7 10 -15 10 -8 0
-15 -2 -15 -4z"/>
<path d="M8937 624 c-16 -9 -27 -18 -24 -21 3 -2 22 5 44 16 21 11 31 20 23
20 -8 0 -28 -7 -43 -15z"/>
<path d="M3640 610 c20 -13 33 -13 25 0 -3 6 -14 10 -23 10 -15 0 -15 -2 -2
-10z"/>
<path d="M3685 590 c3 -5 11 -10 16 -10 6 0 7 5 4 10 -3 6 -11 10 -16 10 -6 0
-7 -4 -4 -10z"/>
<path d="M8870 590 c-8 -5 -10 -10 -5 -10 6 0 17 5 25 10 8 5 11 10 5 10 -5 0
-17 -5 -25 -10z"/>
<path d="M3734 569 c32 -19 209 -89 213 -85 3 2 -10 11 -29 19 -18 8 -54 24
-80 36 -26 11 -54 21 -62 21 -8 0 -18 5 -21 10 -3 6 -14 10 -23 10 -15 -1 -15
-2 2 -11z"/>
<path d="M8815 570 c-8 -13 5 -13 25 0 13 8 13 10 -2 10 -9 0 -20 -4 -23 -10z"/>
<path d="M8755 546 c-58 -23 -101 -46 -75 -40 29 7 130 53 115 52 -5 0 -23 -6
-40 -12z"/>
<path d="M8615 490 c-8 -13 5 -13 25 0 13 8 13 10 -2 10 -9 0 -20 -4 -23 -10z"/>
<path d="M3970 470 c20 -13 33 -13 25 0 -3 6 -14 10 -23 10 -15 0 -15 -2 -2
-10z"/>
<path d="M8535 460 c-22 -10 -33 -19 -25 -19 8 0 33 9 55 19 22 10 33 19 25
19 -8 0 -33 -9 -55 -19z"/>
<path d="M4030 450 c8 -5 20 -10 25 -10 6 0 3 5 -5 10 -8 5 -19 10 -25 10 -5
0 -3 -5 5 -10z"/>
<path d="M4080 430 c20 -13 33 -13 25 0 -3 6 -14 10 -23 10 -15 0 -15 -2 -2
-10z"/>
<path d="M8445 430 c-3 -5 1 -10 9 -10 8 0 18 5 21 10 3 6 -1 10 -9 10 -8 0
-18 -4 -21 -10z"/>
<path d="M4145 410 c3 -5 11 -10 16 -10 6 0 7 5 4 10 -3 6 -11 10 -16 10 -6 0
-7 -4 -4 -10z"/>
<path d="M8385 410 c-3 -5 -15 -10 -25 -10 -10 0 -22 -5 -26 -11 -7 -12 19 -6
71 16 26 12 27 13 8 14 -12 1 -25 -3 -28 -9z"/>
<path d="M4190 391 c8 -5 26 -12 40 -16 24 -7 24 -7 5 9 -11 8 -29 15 -40 15
-16 0 -17 -1 -5 -8z"/>
<path d="M8256 365 c-24 -18 -13 -18 34 0 31 12 32 14 10 14 -14 0 -34 -6 -44
-14z"/>
<path d="M4315 350 c27 -12 43 -12 25 0 -8 5 -22 9 -30 9 -10 0 -8 -3 5 -9z"/>
<path d="M4375 330 c28 -12 37 -12 30 0 -3 6 -16 10 -28 9 -21 0 -21 -1 -2 -9z"/>
<path d="M8145 330 c-7 -12 2 -12 30 0 19 8 19 9 -2 9 -12 1 -25 -3 -28 -9z"/>
<path d="M4435 310 c28 -12 47 -12 40 0 -3 6 -18 10 -33 9 -24 0 -25 -1 -7 -9z"/>
<path d="M8078 303 c7 -3 16 -2 19 1 4 3 -2 6 -13 5 -11 0 -14 -3 -6 -6z"/>
<path d="M8005 290 c-8 -13 15 -13 35 0 12 8 11 10 -7 10 -12 0 -25 -4 -28
-10z"/>
<path d="M4575 270 c28 -12 47 -12 40 0 -3 6 -18 10 -33 9 -24 0 -25 -1 -7 -9z"/>
<path d="M7930 270 c0 -12 8 -12 35 0 18 8 17 9 -7 9 -16 1 -28 -3 -28 -9z"/>
<path d="M4663 252 c4 -6 22 -13 40 -17 17 -4 40 -9 51 -12 11 -3 16 -1 12 5
-3 5 -20 12 -38 14 -18 3 -42 9 -52 13 -13 6 -17 5 -13 -3z"/>
<path d="M7855 250 c-7 -12 12 -12 40 0 18 8 17 9 -7 9 -15 1 -30 -3 -33 -9z"/>
<path d="M4820 210 c8 -5 22 -9 30 -9 10 0 8 3 -5 9 -27 12 -43 12 -25 0z"/>
<path d="M7680 204 c-14 -8 -17 -13 -7 -10 10 3 25 6 33 6 8 0 14 5 14 10 0
14 -10 12 -40 -6z"/>
<path d="M4910 190 c0 -5 7 -10 16 -10 8 0 12 5 9 10 -3 6 -10 10 -16 10 -5 0
-9 -4 -9 -10z"/>
<path d="M7575 180 c-25 -11 1 -11 35 0 20 6 21 8 5 8 -11 0 -29 -3 -40 -8z"/>
<path d="M5015 170 c-3 -5 1 -10 10 -10 9 0 13 5 10 10 -3 6 -8 10 -10 10 -2
0 -7 -4 -10 -10z"/>
<path d="M7505 170 c-3 -5 3 -10 15 -10 12 0 18 5 15 10 -3 6 -10 10 -15 10
-5 0 -12 -4 -15 -10z"/>
<path d="M5110 150 c0 -5 7 -10 16 -10 8 0 12 5 9 10 -3 6 -10 10 -16 10 -5 0
-9 -4 -9 -10z"/>
<path d="M7410 150 c-12 -8 -11 -10 5 -9 11 1 31 5 45 9 24 8 24 8 -5 9 -16 0
-37 -4 -45 -9z"/>
<path d="M7305 130 c-7 -11 16 -11 60 0 28 7 28 8 -12 9 -23 0 -45 -3 -48 -9z"/>
<path d="M5335 110 c3 -5 18 -10 33 -10 21 0 24 2 12 10 -20 13 -53 13 -45 0z"/>
<path d="M7180 110 c-12 -8 -9 -10 13 -10 16 0 26 4 22 10 -8 12 -16 12 -35 0z"/>
<path d="M7258 113 c7 -3 16 -2 19 1 4 3 -2 6 -13 5 -11 0 -14 -3 -6 -6z"/>
<path d="M5408 93 c7 -3 16 -2 19 1 4 3 -2 6 -13 5 -11 0 -14 -3 -6 -6z"/>
<path d="M7040 90 c-12 -8 -9 -10 13 -10 15 0 27 5 27 10 0 13 -20 13 -40 0z"/>
<path d="M7138 93 c7 -3 16 -2 19 1 4 3 -2 6 -13 5 -11 0 -14 -3 -6 -6z"/>
<path d="M5568 73 c7 -3 16 -2 19 1 4 3 -2 6 -13 5 -11 0 -14 -3 -6 -6z"/>
<path d="M6818 53 c7 -3 16 -2 19 1 4 3 -2 6 -13 5 -11 0 -14 -3 -6 -6z"/>
<path d="M5953 33 c15 -2 37 -2 50 0 12 2 0 4 -28 4 -27 0 -38 -2 -22 -4z"/>
<path d="M6533 33 c9 -2 23 -2 30 0 6 3 -1 5 -18 5 -16 0 -22 -2 -12 -5z"/>
<path d="M6598 33 c6 -2 18 -2 25 0 6 3 1 5 -13 5 -14 0 -19 -2 -12 -5z"/>
</g>
</svg>
