<?xml version="1.0" standalone="no"?>
<!DOCTYPE svg PUBLIC "-//W3C//DTD SVG 20010904//EN"
 "http://www.w3.org/TR/2001/REC-SVG-20010904/DTD/svg10.dtd">
<svg version="1.0" xmlns="http://www.w3.org/2000/svg"
 width="1089.000000pt" height="1280.000000pt" viewBox="0 0 1089.000000 1280.000000"
 preserveAspectRatio="xMidYMid meet">
<g transform="translate(0.000000,1280.000000) scale(0.100000,-0.100000)"
fill="#000000" stroke="none">
<path d="M6755 12045 c-583 -68 -1111 -286 -1565 -646 -120 -94 -377 -347
-467 -459 -566 -702 -796 -1586 -642 -2470 88 -505 303 -981 624 -1380 41 -52
74 -102 73 -110 -2 -9 -1065 -1391 -2363 -3073 -1850 -2396 -2366 -3070 -2387
-3119 -40 -94 -36 -140 24 -296 59 -152 251 -341 424 -418 69 -30 231 -74 276
-74 47 0 158 36 206 67 31 20 120 128 321 388 153 198 1217 1577 2366 3065
1148 1488 2091 2709 2096 2715 10 10 7 11 231 -80 653 -264 1418 -284 2099
-54 1033 347 1809 1230 2023 2299 74 368 76 807 6 1175 -93 490 -306 952 -620
1345 -108 135 -335 362 -470 470 -459 367 -999 590 -1585 655 -159 18 -516 18
-670 0z m725 -400 c582 -91 1094 -349 1500 -755 400 -400 654 -897 750 -1470
28 -161 38 -505 21 -676 -66 -643 -347 -1222 -815 -1671 -406 -391 -912 -635
-1491 -719 -166 -24 -533 -24 -700 0 -319 46 -588 130 -865 271 -410 209 -776
540 -1033 935 -457 703 -549 1621 -242 2407 203 519 556 956 1025 1268 323
215 747 369 1150 420 153 19 552 13 700 -10z"/>
<path d="M6880 11519 c-104 -10 -322 -48 -330 -56 -3 -3 11 -3 30 1 157 28
263 38 441 43 280 8 449 -13 709 -88 409 -117 763 -350 965 -634 130 -183 154
-322 57 -326 -57 -3 -130 3 -212 16 -504 84 -1037 5 -1495 -219 -262 -129
-443 -256 -649 -456 -356 -346 -587 -751 -700 -1230 -74 -312 -85 -673 -31
-990 22 -129 22 -208 -1 -230 -111 -110 -520 204 -737 567 -138 228 -247 553
-283 843 -18 141 -20 469 -4 565 5 33 9 74 9 90 -1 30 -1 30 -9 -5 -16 -68
-30 -255 -30 -399 0 -639 249 -1255 693 -1717 348 -363 787 -610 1273 -718
306 -68 686 -73 994 -15 333 64 647 191 920 374 166 111 243 173 379 308 209
206 358 412 486 672 124 251 194 474 236 750 29 184 31 511 5 690 -86 596
-370 1140 -796 1522 -383 344 -832 555 -1334 629 -127 18 -460 26 -586 13z"/>
<path d="M4660 9526 c-6 -31 -10 -62 -7 -69 2 -6 9 17 15 52 14 80 8 93 -8 17z"/>
</g>
</svg>
