<?xml version="1.0" encoding="iso-8859-1"?>
<!-- Generator: Adobe Illustrator 16.0.0, SVG Export Plug-In . SVG Version: 6.00 Build 0)  -->
<!DOCTYPE svg PUBLIC "-//W3C//DTD SVG 1.1//EN" "http://www.w3.org/Graphics/SVG/1.1/DTD/svg11.dtd">
<svg version="1.1" id="Capa_1" xmlns="http://www.w3.org/2000/svg" xmlns:xlink="http://www.w3.org/1999/xlink" x="0px" y="0px"
	 width="512px" height="512px" viewBox="0 0 512 512" style="enable-background:new 0 0 512 512;" xml:space="preserve">
<g>
	<path d="M464,224h-16c-8.812,0-16,7.156-16,16h-17.375c-3.312-39.094-17.625-75.031-40.812-103.938
		C368.625,101.063,362,66.219,352,32L320,0H128L96,32c-9.938,34.219-16.563,69.031-21.75,104.031C47.875,168.906,32,210.563,32,256
		c0,45.438,15.875,87.094,42.25,119.969c5.188,35,11.813,69.813,21.75,104.031l32,32h192l32-32
		c10-34.219,16.625-69.062,21.812-104.031c23.188-28.938,37.5-64.875,40.813-103.969H432c0,8.844,7.188,16,16,16h16
		c8.875,0,16-7.156,16-16v-32C480,231.156,472.875,224,464,224z M224,416c-88.188,0-160-71.781-160-160S135.813,96,224,96
		c88.25,0,160,71.781,160,160S312.25,416,224,416z M237.563,248H320v16h-82.438c-2.125,3.562-5.438,6.125-9.563,7.188V288h-8
		v-16.812c-4.063-1.063-7.438-3.625-9.531-7.188H192v-16h18.469c2.094-3.563,5.469-6.125,9.531-7.188V160h8v80.813
		C232.125,241.875,235.438,244.438,237.563,248z M192,320h64v32h-64V320z M208,128c0-8.844,7.188-16,16-16s16,7.156,16,16
		s-7.188,16-16,16S208,136.844,208,128z M240,384c0,8.844-7.188,16-16,16s-16-7.156-16-16s7.188-16,16-16S240,375.156,240,384z
		 M112,256c0,8.844-7.125,16-16,16c-8.813,0-16-7.156-16-16c0-8.813,7.188-16,16-16C104.875,240,112,247.188,112,256z M336,256
		c0-8.813,7.188-16,16-16c8.875,0,16,7.188,16,16c0,8.844-7.125,16-16,16C343.188,272,336,264.844,336,256z"/>
</g>
<g>
</g>
<g>
</g>
<g>
</g>
<g>
</g>
<g>
</g>
<g>
</g>
<g>
</g>
<g>
</g>
<g>
</g>
<g>
</g>
<g>
</g>
<g>
</g>
<g>
</g>
<g>
</g>
<g>
</g>
</svg>
